<svg xmlns="http://www.w3.org/2000/svg" version="1.1" xmlns:xlink="http://www.w3.org/1999/xlink" xmlns:svgjs="http://svgjs.dev/svgjs" width="2000" height="511" viewBox="0 0 2000 511"><g transform="matrix(1,0,0,1,0.3398876404492057,0.5166153846154771)"><svg viewBox="0 0 356 91" data-background-color="#ffffff" preserveAspectRatio="xMidYMid meet" height="511" width="2000" xmlns="http://www.w3.org/2000/svg" xmlns:xlink="http://www.w3.org/1999/xlink"><g id="tight-bounds" transform="matrix(1,0,0,1,-0.06049999999996203,-0.09200000000001296)"><svg viewBox="0 0 356.12052 91.18363657610001" height="91.18363657610001" width="356.12052"><g><svg viewBox="0 0 356.12052 91.18363657610001" height="91.18363657610001" width="356.12052"><g><svg viewBox="0 0 356.12052 91.18363657610001" height="91.18363657610001" width="356.12052"><g><path d="M0 91.184v-91.184h356.121v91.184z" fill="#ffffff" stroke="transparent" stroke-width="0" rx="0%" data-fill-palette-color="tertiary"></path><path d="M3.283 87.9v-84.617h349.554v84.617z" fill="#000000" stroke="transparent" stroke-width="0" rx="0%" data-fill-palette-color="quaternary"></path><path d="M9.85 81.334v-71.484h336.421v71.484z" fill="#ffffff" stroke="transparent" stroke-width="0" data-fill-palette-color="tertiary"></path></g><g transform="matrix(1,0,0,1,19.69974,19.69974)" id="textblocktransform"><svg viewBox="0 0 316.72104 51.784156576100024" height="51.784156576100024" width="316.72104" id="textblock"><g><svg viewBox="0 0 316.72104 51.784156576100024" height="51.784156576100024" width="316.72104"><g transform="matrix(1,0,0,1,0,0)"><svg width="316.72104" viewBox="1.75 -33.5 207.94000244140625 34" height="51.784156576100024" data-palette-color="#ffffff"><path d="M16.15-33.5L16.15-33.5Q20.6-33.5 23.85-31.83 27.1-30.15 29.35-26.9L29.35-26.9 25.75-23.45Q23.85-26.35 21.48-27.63 19.1-28.9 15.85-28.9L15.85-28.9Q13.45-28.9 11.9-28.25 10.35-27.6 9.63-26.53 8.9-25.45 8.9-24.1L8.9-24.1Q8.9-22.55 9.98-21.4 11.05-20.25 14-19.6L14-19.6 20.7-18.1Q25.5-17.05 27.5-14.9 29.5-12.75 29.5-9.45L29.5-9.45Q29.5-6.4 27.85-4.15 26.2-1.9 23.28-0.7 20.35 0.5 16.4 0.5L16.4 0.5Q12.9 0.5 10.1-0.4 7.3-1.3 5.2-2.85 3.1-4.4 1.75-6.4L1.75-6.4 5.45-10.1Q6.5-8.35 8.1-6.98 9.7-5.6 11.83-4.85 13.95-4.1 16.55-4.1L16.55-4.1Q18.85-4.1 20.53-4.65 22.2-5.2 23.08-6.28 23.95-7.35 23.95-8.85L23.95-8.85Q23.95-10.3 22.98-11.4 22-12.5 19.35-13.1L19.35-13.1 12.1-14.75Q9.1-15.4 7.15-16.6 5.2-17.8 4.25-19.53 3.3-21.25 3.3-23.4L3.3-23.4Q3.3-26.2 4.83-28.48 6.35-30.75 9.25-32.13 12.15-33.5 16.15-33.5ZM58.3-33L63.95-33 51.7 0 45.45 0 33.2-33 38.9-33 46.6-11.05 48.6-4.5 50.6-11 58.3-33ZM75.3-33L75.3-4.6 93.5-4.6 93.5 0 69.95 0 69.95-33 75.3-33ZM99.89-33L105.24-33 105.24 0 99.89 0 99.89-33ZM137.14-33L142.09-33 142.09 0 135.74 0 122.99-20.8 119.79-26.65 119.74-26.65 119.94-21.3 119.94 0 115.04 0 115.04-33 121.34-33 134.04-12.25 137.29-6.3 137.34-6.3 137.14-11.7 137.14-33ZM172.34-33L178.89-33 164.19-17.1 163.59-17.05 155.04-7.85 154.54-13.7 172.34-33ZM151.84-33L157.19-33 157.19 0 151.84 0 151.84-33ZM161.04-18.2L165.29-21.2 179.19 0 172.89 0 161.04-18.2ZM203.69-33L209.69-33 197.89-12.65 197.89 0 192.54 0 192.54-12.65 180.79-33 186.74-33 192.64-22.35 195.24-17.45 197.84-22.35 203.69-33Z" opacity="1" transform="matrix(1,0,0,1,0,0)" fill="#000000" class="wordmark-text-0" data-fill-palette-color="quaternary" id="text-0"></path></svg></g></svg></g></svg></g></svg></g><g></g></svg></g><defs></defs></svg><rect width="356.12052" height="91.18363657610001" fill="none" stroke="none" visibility="hidden"></rect></g></svg></g></svg>