M48
; DRILL file {KiCad (6.0.5)} date Tue Nov 22 23:52:47 2022
; FORMAT={-:-/ absolute / inch / decimal}
; #@! TF.CreationDate,2022-11-22T23:52:47-08:00
; #@! TF.GenerationSoftware,Kicad,Pcbnew,(6.0.5)
; #@! TF.FileFunction,Plated,1,2,PTH
FMAT,2
INCH
; #@! TA.AperFunction,Plated,PTH,ViaDrill
T1C0.0118
; #@! TA.AperFunction,Plated,PTH,ViaDrill
T2C0.0157
; #@! TA.AperFunction,Plated,PTH,ComponentDrill
T3C0.0236
; #@! TA.AperFunction,Plated,PTH,ComponentDrill
T4C0.0394
%
G90
G05
T1
X5.7382Y-3.502
X5.7579Y-4.1004
X5.7653Y-3.689
X5.7677Y-3.9665
X5.7794Y-3.5217
X5.7835Y-3.9213
X5.7972Y-3.437
X5.811Y-3.9764
X5.8346Y-3.5965
X5.8465Y-3.6791
X5.8484Y-3.437
X5.878Y-3.6791
X5.9016Y-3.9173
X5.9035Y-3.311
X5.9213Y-3.3917
X5.9343Y-3.4941
X5.9488Y-4.1791
X5.9528Y-3.7717
X5.9528Y-3.8189
X5.9528Y-3.8661
X5.9547Y-3.9941
X5.9646Y-3.5807
X5.9838Y-3.3307
X5.9902Y-3.6339
X5.9941Y-4.0551
X6.0Y-3.7717
X6.0Y-3.8189
X6.0Y-3.8661
X6.0118Y-3.3484
X6.0394Y-3.561
X6.0433Y-3.3484
X6.0472Y-3.7717
X6.0472Y-3.8189
X6.0472Y-3.8661
X6.0512Y-4.002
X6.0591Y-3.7221
X6.0748Y-3.8957
X6.0827Y-3.561
X6.0965Y-3.311
X6.0984Y-3.4331
X6.122Y-4.0197
X6.122Y-4.1063
X6.1535Y-3.9764
X6.1831Y-3.5827
X6.1831Y-3.628
X6.1855Y-3.9462
X6.189Y-3.9921
X6.1969Y-3.8465
X6.1969Y-4.1614
X6.1988Y-3.6988
X6.2051Y-3.7878
X6.2146Y-3.9134
X6.2323Y-3.3917
X6.2362Y-4.0118
X6.2657Y-3.8996
T2
X5.8386Y-3.3031
X6.0945Y-3.5217
X6.1189Y-3.564
X6.1614Y-3.3031
T3
X5.8091Y-4.0931
X5.8091Y-4.1431
T4
X5.7Y-3.15
X5.7Y-3.25
X5.7Y-3.35
X5.7Y-3.45
X5.7Y-3.55
X5.7Y-3.65
X5.7Y-3.75
X5.7Y-3.85
X5.7Y-3.95
X5.7Y-4.05
X5.7Y-4.15
X5.7Y-4.25
X5.8Y-4.25
X5.9Y-4.25
X6.0Y-4.25
X6.1Y-4.25
X6.2Y-4.25
X6.3Y-3.15
X6.3Y-3.25
X6.3Y-3.35
X6.3Y-3.45
X6.3Y-3.55
X6.3Y-3.65
X6.3Y-3.75
X6.3Y-3.85
X6.3Y-3.95
X6.3Y-4.05
X6.3Y-4.15
X6.3Y-4.25
T3
G00X5.7787Y-3.0827
M15
G01X5.7787Y-3.0433
M16
G05
G00X5.7787Y-3.2323
M15
G01X5.7787Y-3.2087
M16
G05
G00X6.2213Y-3.0827
M15
G01X6.2213Y-3.0433
M16
G05
G00X6.2213Y-3.2323
M15
G01X6.2213Y-3.2087
M16
G05
T0
M30
