%TF.GenerationSoftware,KiCad,Pcbnew,(6.0.5)*%
%TF.CreationDate,2022-11-22T23:52:45-08:00*%
%TF.ProjectId,0xB2,30784232-2e6b-4696-9361-645f70636258,2*%
%TF.SameCoordinates,Original*%
%TF.FileFunction,Legend,Top*%
%TF.FilePolarity,Positive*%
%FSLAX46Y46*%
G04 Gerber Fmt 4.6, Leading zero omitted, Abs format (unit mm)*
G04 Created by KiCad (PCBNEW (6.0.5)) date 2022-11-22 23:52:45*
%MOMM*%
%LPD*%
G01*
G04 APERTURE LIST*
%ADD10C,0.150000*%
%ADD11C,0.200000*%
%ADD12C,0.160000*%
G04 APERTURE END LIST*
D10*
G36*
X148950000Y-92950000D02*
G01*
X148700000Y-92450000D01*
X149200000Y-92450000D01*
X148950000Y-92950000D01*
G37*
X148950000Y-92950000D02*
X148700000Y-92450000D01*
X149200000Y-92450000D01*
X148950000Y-92950000D01*
D11*
%TO.C,SW1*%
X155897619Y-106711904D02*
X155630952Y-106330952D01*
X155440476Y-106711904D02*
X155440476Y-105911904D01*
X155745238Y-105911904D01*
X155821428Y-105950000D01*
X155859523Y-105988095D01*
X155897619Y-106064285D01*
X155897619Y-106178571D01*
X155859523Y-106254761D01*
X155821428Y-106292857D01*
X155745238Y-106330952D01*
X155440476Y-106330952D01*
D12*
%TO.C,C14*%
X154392164Y-102840000D02*
X154607836Y-102840000D01*
X154392164Y-103560000D02*
X154607836Y-103560000D01*
%TO.C,C9*%
X146540000Y-98592164D02*
X146540000Y-98807836D01*
X147260000Y-98592164D02*
X147260000Y-98807836D01*
%TO.C,R10*%
X156203641Y-90720000D02*
X155896359Y-90720000D01*
X156203641Y-91480000D02*
X155896359Y-91480000D01*
%TO.C,C5*%
X158460000Y-93392164D02*
X158460000Y-93607836D01*
X157740000Y-93392164D02*
X157740000Y-93607836D01*
%TO.C,D2*%
X152550000Y-85550000D02*
X152550000Y-88100000D01*
X150850000Y-85550000D02*
X150850000Y-88100000D01*
X152550000Y-85550000D02*
X150850000Y-85550000D01*
%TO.C,R8*%
X152470000Y-104453641D02*
X152470000Y-104146359D01*
X153230000Y-104453641D02*
X153230000Y-104146359D01*
%TO.C,U3*%
X154850000Y-88510000D02*
X154050000Y-88510000D01*
X154850000Y-85390000D02*
X155650000Y-85390000D01*
X154850000Y-85390000D02*
X153050000Y-85390000D01*
X154850000Y-88510000D02*
X155650000Y-88510000D01*
%TO.C,C12*%
X147340000Y-93807836D02*
X147340000Y-93592164D01*
X148060000Y-93807836D02*
X148060000Y-93592164D01*
%TO.C,R6*%
X153020000Y-91346359D02*
X153020000Y-91653641D01*
X153780000Y-91346359D02*
X153780000Y-91653641D01*
%TO.C,F1*%
X150410000Y-86537221D02*
X150410000Y-86862779D01*
X149390000Y-86537221D02*
X149390000Y-86862779D01*
%TO.C,C13*%
X158160000Y-98257836D02*
X158160000Y-98042164D01*
X157440000Y-98257836D02*
X157440000Y-98042164D01*
%TO.C,R5*%
X148170000Y-85996359D02*
X148170000Y-86303641D01*
X148930000Y-85996359D02*
X148930000Y-86303641D01*
%TO.C,SW2*%
X146280000Y-102980000D02*
X146380000Y-102980000D01*
X148420000Y-102980000D02*
X148520000Y-102980000D01*
X148520000Y-106220000D02*
X148520000Y-102980000D01*
X148420000Y-106220000D02*
X148520000Y-106220000D01*
X146280000Y-106220000D02*
X146280000Y-102980000D01*
X146280000Y-106220000D02*
X146380000Y-106220000D01*
%TO.C,C8*%
X154392164Y-101740000D02*
X154607836Y-101740000D01*
X154392164Y-102460000D02*
X154607836Y-102460000D01*
%TO.C,U2*%
X148750000Y-89500000D02*
X150250000Y-89500000D01*
X147250000Y-91700000D02*
X150250000Y-91700000D01*
%TO.C,R4*%
X157570000Y-85246359D02*
X157570000Y-85553641D01*
X158330000Y-85246359D02*
X158330000Y-85553641D01*
%TO.C,J1*%
X147550000Y-83050000D02*
X148650000Y-83050000D01*
X157250000Y-83050000D02*
X157250000Y-76700000D01*
X157250000Y-83050000D02*
X156150000Y-83050000D01*
X147550000Y-83050000D02*
X147550000Y-76700000D01*
%TO.C,R2*%
X157246359Y-101520000D02*
X157553641Y-101520000D01*
X157246359Y-102280000D02*
X157553641Y-102280000D01*
%TO.C,C11*%
X157460000Y-93392164D02*
X157460000Y-93607836D01*
X156740000Y-93392164D02*
X156740000Y-93607836D01*
%TO.C,R11*%
X157980000Y-91763641D02*
X157980000Y-91456359D01*
X157220000Y-91763641D02*
X157220000Y-91456359D01*
%TO.C,Y1*%
X149400000Y-102250000D02*
X149400000Y-105550000D01*
X152200000Y-102250000D02*
X149400000Y-102250000D01*
%TO.C,C10*%
X149622164Y-88390000D02*
X149837836Y-88390000D01*
X149622164Y-89110000D02*
X149837836Y-89110000D01*
%TO.C,C4*%
X152207836Y-106510000D02*
X151992164Y-106510000D01*
X152207836Y-105790000D02*
X151992164Y-105790000D01*
%TO.C,R7*%
X154120000Y-91346359D02*
X154120000Y-91653641D01*
X154880000Y-91346359D02*
X154880000Y-91653641D01*
%TO.C,FB1*%
X146740000Y-86012779D02*
X146740000Y-85687221D01*
X147760000Y-86012779D02*
X147760000Y-85687221D01*
%TO.C,R1*%
X154653641Y-103920000D02*
X154346359Y-103920000D01*
X154653641Y-104680000D02*
X154346359Y-104680000D01*
%TO.C,D1*%
X154050000Y-106000000D02*
G75*
G03*
X154050000Y-106000000I-50000J0D01*
G01*
%TO.C,C6*%
X155942164Y-92510000D02*
X156157836Y-92510000D01*
X155942164Y-91790000D02*
X156157836Y-91790000D01*
%TO.C,C2*%
X156490580Y-88940000D02*
X156209420Y-88940000D01*
X156490580Y-89960000D02*
X156209420Y-89960000D01*
%TO.C,SW1*%
X158520000Y-106220000D02*
X158520000Y-102980000D01*
X156280000Y-106220000D02*
X156280000Y-102980000D01*
X156280000Y-102980000D02*
X156380000Y-102980000D01*
X158420000Y-102980000D02*
X158520000Y-102980000D01*
X158420000Y-106220000D02*
X158520000Y-106220000D01*
X156280000Y-106220000D02*
X156380000Y-106220000D01*
%TO.C,C7*%
X152460000Y-91507836D02*
X152460000Y-91292164D01*
X151740000Y-91507836D02*
X151740000Y-91292164D01*
%TO.C,R3*%
X147453641Y-102280000D02*
X147146359Y-102280000D01*
X147453641Y-101520000D02*
X147146359Y-101520000D01*
%TO.C,R9*%
X147626359Y-88370000D02*
X147933641Y-88370000D01*
X147626359Y-89130000D02*
X147933641Y-89130000D01*
%TO.C,C1*%
X153109420Y-88940000D02*
X153390580Y-88940000D01*
X153109420Y-89960000D02*
X153390580Y-89960000D01*
%TO.C,C3*%
X149992164Y-105790000D02*
X150207836Y-105790000D01*
X149992164Y-106510000D02*
X150207836Y-106510000D01*
%TO.C,U1*%
X155360000Y-93390000D02*
X156010000Y-93390000D01*
X155360000Y-100610000D02*
X156010000Y-100610000D01*
X156010000Y-93390000D02*
X156010000Y-94040000D01*
X148790000Y-100610000D02*
X148790000Y-99960000D01*
X156010000Y-100610000D02*
X156010000Y-99960000D01*
X149440000Y-100610000D02*
X148790000Y-100610000D01*
%TD*%
M02*
