%TF.GenerationSoftware,KiCad,Pcbnew,(6.0.8)*%
%TF.CreationDate,2022-11-23T03:17:44-08:00*%
%TF.ProjectId,0xB2,30784232-2e6b-4696-9361-645f70636258,2*%
%TF.SameCoordinates,Original*%
%TF.FileFunction,Drillmap*%
%TF.FilePolarity,Positive*%
%FSLAX45Y45*%
G04 Gerber Fmt 4.5, Leading zero omitted, Abs format (unit mm)*
G04 Created by KiCad (PCBNEW (6.0.8)) date 2022-11-23 03:17:44*
%MOMM*%
%LPD*%
G01*
G04 APERTURE LIST*
%ADD10C,0.100000*%
%ADD11C,0.200000*%
G04 APERTURE END LIST*
D10*
X14351000Y-10795000D02*
X14351000Y-7747000D01*
X15702000Y-8240000D02*
X15702000Y-7620000D01*
X16002000Y-10922000D02*
G75*
G03*
X16129000Y-10795000I0J127000D01*
G01*
X14778000Y-7620000D02*
X14778000Y-8240000D01*
X14351000Y-10795000D02*
G75*
G03*
X14478000Y-10922000I127000J0D01*
G01*
X15662000Y-8240000D02*
X14818000Y-8240000D01*
X14778000Y-8240000D02*
G75*
G03*
X14818000Y-8240000I20000J0D01*
G01*
X16129000Y-7747000D02*
X16129000Y-10795000D01*
X16002000Y-10922000D02*
X14478000Y-10922000D01*
X14478000Y-7620000D02*
X14778000Y-7620000D01*
X15702000Y-7620000D02*
X16002000Y-7620000D01*
X16129000Y-7747000D02*
G75*
G03*
X16002000Y-7620000I-127000J0D01*
G01*
X14478000Y-7620000D02*
G75*
G03*
X14351000Y-7747000I0J-127000D01*
G01*
X15662000Y-8240000D02*
G75*
G03*
X15702000Y-8240000I20000J0D01*
G01*
D11*
X14603619Y-11237476D02*
X14603619Y-11037476D01*
X14651238Y-11037476D01*
X14679809Y-11047000D01*
X14698857Y-11066048D01*
X14708381Y-11085095D01*
X14717905Y-11123190D01*
X14717905Y-11151762D01*
X14708381Y-11189857D01*
X14698857Y-11208905D01*
X14679809Y-11227952D01*
X14651238Y-11237476D01*
X14603619Y-11237476D01*
X14803619Y-11237476D02*
X14803619Y-11104143D01*
X14803619Y-11142238D02*
X14813143Y-11123190D01*
X14822667Y-11113667D01*
X14841714Y-11104143D01*
X14860762Y-11104143D01*
X14927428Y-11237476D02*
X14927428Y-11104143D01*
X14927428Y-11037476D02*
X14917905Y-11047000D01*
X14927428Y-11056524D01*
X14936952Y-11047000D01*
X14927428Y-11037476D01*
X14927428Y-11056524D01*
X15051238Y-11237476D02*
X15032190Y-11227952D01*
X15022667Y-11208905D01*
X15022667Y-11037476D01*
X15156000Y-11237476D02*
X15136952Y-11227952D01*
X15127428Y-11208905D01*
X15127428Y-11037476D01*
X15384571Y-11237476D02*
X15384571Y-11037476D01*
X15451238Y-11180333D01*
X15517905Y-11037476D01*
X15517905Y-11237476D01*
X15698857Y-11237476D02*
X15698857Y-11132714D01*
X15689333Y-11113667D01*
X15670286Y-11104143D01*
X15632190Y-11104143D01*
X15613143Y-11113667D01*
X15698857Y-11227952D02*
X15679809Y-11237476D01*
X15632190Y-11237476D01*
X15613143Y-11227952D01*
X15603619Y-11208905D01*
X15603619Y-11189857D01*
X15613143Y-11170810D01*
X15632190Y-11161286D01*
X15679809Y-11161286D01*
X15698857Y-11151762D01*
X15794095Y-11104143D02*
X15794095Y-11304143D01*
X15794095Y-11113667D02*
X15813143Y-11104143D01*
X15851238Y-11104143D01*
X15870286Y-11113667D01*
X15879809Y-11123190D01*
X15889333Y-11142238D01*
X15889333Y-11199381D01*
X15879809Y-11218428D01*
X15870286Y-11227952D01*
X15851238Y-11237476D01*
X15813143Y-11237476D01*
X15794095Y-11227952D01*
X15975048Y-11218428D02*
X15984571Y-11227952D01*
X15975048Y-11237476D01*
X15965524Y-11227952D01*
X15975048Y-11218428D01*
X15975048Y-11237476D01*
X15975048Y-11113667D02*
X15984571Y-11123190D01*
X15975048Y-11132714D01*
X15965524Y-11123190D01*
X15975048Y-11113667D01*
X15975048Y-11132714D01*
M02*
