%TF.GenerationSoftware,KiCad,Pcbnew,(6.0.8)*%
%TF.CreationDate,2022-11-23T03:17:42-08:00*%
%TF.ProjectId,0xB2,30784232-2e6b-4696-9361-645f70636258,2*%
%TF.SameCoordinates,Original*%
%TF.FileFunction,Copper,L2,Bot*%
%TF.FilePolarity,Positive*%
%FSLAX46Y46*%
G04 Gerber Fmt 4.6, Leading zero omitted, Abs format (unit mm)*
G04 Created by KiCad (PCBNEW (6.0.8)) date 2022-11-23 03:17:42*
%MOMM*%
%LPD*%
G01*
G04 APERTURE LIST*
G04 Aperture macros list*
%AMRoundRect*
0 Rectangle with rounded corners*
0 $1 Rounding radius*
0 $2 $3 $4 $5 $6 $7 $8 $9 X,Y pos of 4 corners*
0 Add a 4 corners polygon primitive as box body*
4,1,4,$2,$3,$4,$5,$6,$7,$8,$9,$2,$3,0*
0 Add four circle primitives for the rounded corners*
1,1,$1+$1,$2,$3*
1,1,$1+$1,$4,$5*
1,1,$1+$1,$6,$7*
1,1,$1+$1,$8,$9*
0 Add four rect primitives between the rounded corners*
20,1,$1+$1,$2,$3,$4,$5,0*
20,1,$1+$1,$4,$5,$6,$7,0*
20,1,$1+$1,$6,$7,$8,$9,0*
20,1,$1+$1,$8,$9,$2,$3,0*%
G04 Aperture macros list end*
%TA.AperFunction,ComponentPad*%
%ADD10C,1.700000*%
%TD*%
%TA.AperFunction,ComponentPad*%
%ADD11RoundRect,0.255000X-0.595000X-0.595000X0.595000X-0.595000X0.595000X0.595000X-0.595000X0.595000X0*%
%TD*%
%TA.AperFunction,ComponentPad*%
%ADD12RoundRect,0.255000X0.595000X0.595000X-0.595000X0.595000X-0.595000X-0.595000X0.595000X-0.595000X0*%
%TD*%
%TA.AperFunction,ComponentPad*%
%ADD13O,1.000000X2.000000*%
%TD*%
%TA.AperFunction,ComponentPad*%
%ADD14O,1.000000X1.600000*%
%TD*%
%TA.AperFunction,ComponentPad*%
%ADD15RoundRect,0.150000X0.350000X0.350000X-0.350000X0.350000X-0.350000X-0.350000X0.350000X-0.350000X0*%
%TD*%
%TA.AperFunction,ComponentPad*%
%ADD16C,1.000000*%
%TD*%
%TA.AperFunction,ViaPad*%
%ADD17C,0.800000*%
%TD*%
%TA.AperFunction,ViaPad*%
%ADD18C,0.600000*%
%TD*%
%TA.AperFunction,Conductor*%
%ADD19C,0.160000*%
%TD*%
%TA.AperFunction,Conductor*%
%ADD20C,0.320000*%
%TD*%
%TA.AperFunction,Conductor*%
%ADD21C,0.300000*%
%TD*%
%TA.AperFunction,Conductor*%
%ADD22C,0.400000*%
%TD*%
%TA.AperFunction,Conductor*%
%ADD23C,0.200000*%
%TD*%
G04 APERTURE END LIST*
D10*
%TO.P,J3,1,Pin_1*%
%TO.N,/D12*%
X147320000Y-107950000D03*
%TO.P,J3,2,Pin_2*%
%TO.N,/D13*%
X149860000Y-107950000D03*
%TO.P,J3,3,Pin_3*%
%TO.N,/D14*%
X152400000Y-107950000D03*
%TO.P,J3,4,Pin_4*%
%TO.N,/D15*%
X154940000Y-107950000D03*
%TO.P,J3,5,Pin_5*%
%TO.N,/D16*%
X157480000Y-107950000D03*
%TD*%
%TO.P,J2,1,Pin_1*%
%TO.N,/D0*%
X144780000Y-80010000D03*
%TO.P,J2,2,Pin_2*%
%TO.N,/D1*%
X144780000Y-82550000D03*
D11*
%TO.P,J2,3,Pin_3*%
%TO.N,GND*%
X144780000Y-85090000D03*
D10*
%TO.P,J2,4,Pin_4*%
%TO.N,/D24*%
X144780000Y-87630000D03*
%TO.P,J2,5,Pin_5*%
%TO.N,/D2*%
X144780000Y-90170000D03*
%TO.P,J2,6,Pin_6*%
%TO.N,/D3*%
X144780000Y-92710000D03*
%TO.P,J2,7,Pin_7*%
%TO.N,/D4*%
X144780000Y-95250000D03*
%TO.P,J2,8,Pin_8*%
%TO.N,/D5*%
X144780000Y-97790000D03*
%TO.P,J2,9,Pin_9*%
%TO.N,/D6*%
X144780000Y-100330000D03*
%TO.P,J2,10,Pin_10*%
%TO.N,/D7*%
X144780000Y-102870000D03*
%TO.P,J2,11,Pin_11*%
%TO.N,/D8*%
X144780000Y-105410000D03*
%TO.P,J2,12,Pin_12*%
%TO.N,/D9*%
X144780000Y-107950000D03*
%TD*%
%TO.P,J4,1,Pin_1*%
%TO.N,/D21*%
X160020000Y-107950000D03*
%TO.P,J4,2,Pin_2*%
%TO.N,/MOSI*%
X160020000Y-105410000D03*
%TO.P,J4,3,Pin_3*%
%TO.N,/MISO*%
X160020000Y-102870000D03*
%TO.P,J4,4,Pin_4*%
%TO.N,/SCLK*%
X160020000Y-100330000D03*
%TO.P,J4,5,Pin_5*%
%TO.N,/A0*%
X160020000Y-97790000D03*
%TO.P,J4,6,Pin_6*%
%TO.N,/A1*%
X160020000Y-95250000D03*
%TO.P,J4,7,Pin_7*%
%TO.N,/A2*%
X160020000Y-92710000D03*
%TO.P,J4,8,Pin_8*%
%TO.N,/A3*%
X160020000Y-90170000D03*
%TO.P,J4,9,Pin_9*%
%TO.N,+3V3*%
X160020000Y-87630000D03*
%TO.P,J4,10,Pin_10*%
%TO.N,/~{RESET}*%
X160020000Y-85090000D03*
D12*
%TO.P,J4,11,Pin_11*%
%TO.N,GND*%
X160020000Y-82550000D03*
D10*
%TO.P,J4,12,Pin_12*%
%TO.N,+5V*%
X160020000Y-80010000D03*
%TD*%
D13*
%TO.P,J1,S1,SHIELD*%
%TO.N,Net-(FB1-Pad2)*%
X146780000Y-77800000D03*
X158020000Y-77800000D03*
D14*
X158020000Y-81800000D03*
X146780000Y-81800000D03*
%TD*%
D15*
%TO.P,J5,1,Pin_1*%
%TO.N,GND*%
X147550000Y-105235000D03*
D16*
%TO.P,J5,2,Pin_2*%
%TO.N,Net-(J5-Pad2)*%
X147550000Y-103965000D03*
%TD*%
D17*
%TO.N,GND*%
X148300000Y-83900000D03*
D18*
X155500000Y-104300000D03*
X157400000Y-97700000D03*
X157450000Y-93950000D03*
D17*
X156500000Y-83900000D03*
D18*
X152400000Y-95800000D03*
X151100000Y-106150000D03*
X153600000Y-98200000D03*
X152250000Y-103000000D03*
X148200000Y-91350000D03*
X152400000Y-98200000D03*
X155500000Y-102100000D03*
X153600000Y-95800000D03*
X158300000Y-86150000D03*
X150730000Y-88750000D03*
X151200000Y-97000000D03*
X154900000Y-87200000D03*
X148550000Y-87300000D03*
D17*
X154800000Y-89450000D03*
D18*
X151200000Y-98200000D03*
X151200000Y-95800000D03*
X147250000Y-87300000D03*
X148500000Y-93450000D03*
X149900000Y-99500000D03*
X153600000Y-97000000D03*
X152400000Y-97000000D03*
X157400000Y-105700000D03*
X146900000Y-99600000D03*
X151500000Y-90950000D03*
X157050000Y-92150000D03*
%TO.N,+3V3*%
X158400000Y-101900000D03*
%TO.N,+1V1*%
X153900000Y-94540480D03*
X153700000Y-101650000D03*
X154300000Y-98950000D03*
X152150000Y-92300000D03*
D17*
%TO.N,VBUS*%
X155420000Y-90524500D03*
D18*
X149950000Y-84100000D03*
X150400000Y-86150000D03*
X154850000Y-84100000D03*
%TO.N,/D-*%
X153500000Y-85050000D03*
X154500000Y-90450000D03*
X151988556Y-84600500D03*
%TO.N,/D+*%
X153400000Y-90450000D03*
X152700000Y-85050000D03*
%TO.N,/D1*%
X145750000Y-88950000D03*
X146439500Y-93700000D03*
%TO.N,/D8*%
X146500000Y-100750000D03*
%TO.N,/D15*%
X151250000Y-101450000D03*
%TO.N,/D16*%
X156300000Y-101000000D03*
%TO.N,/D12*%
X147600000Y-101000000D03*
%TO.N,/MOSI*%
X159150000Y-99050000D03*
%TO.N,/~{RESET}*%
X157200000Y-101400000D03*
%TO.N,/QSPI_~{CS}*%
X146250000Y-104150000D03*
X149300000Y-93450000D03*
X146796318Y-89450000D03*
%TO.N,/D24*%
X157610500Y-96210000D03*
%TO.N,/VBUS_DET*%
X157110500Y-100234731D03*
X157050000Y-91000000D03*
%TO.N,/D21*%
X157850000Y-99400000D03*
%TD*%
D19*
%TO.N,+3V3*%
X159059520Y-93309520D02*
X158859520Y-93109520D01*
X159059520Y-97090480D02*
X159059520Y-96009520D01*
X158439031Y-98901192D02*
X158850000Y-98490223D01*
X158859520Y-93109520D02*
X158859520Y-88790480D01*
X158859520Y-88790480D02*
X160020000Y-87630000D01*
X158859520Y-95809520D02*
X158859520Y-94840480D01*
X158850000Y-97300000D02*
X159059520Y-97090480D01*
X158400000Y-101900000D02*
X158439031Y-101810969D01*
X158439031Y-101810969D02*
X158439031Y-98901192D01*
X159059520Y-94640480D02*
X159059520Y-93309520D01*
X158859520Y-94840480D02*
X159059520Y-94640480D01*
X158850000Y-98490223D02*
X158850000Y-97300000D01*
X159059520Y-96009520D02*
X158859520Y-95809520D01*
D20*
%TO.N,+1V1*%
X153700000Y-101650000D02*
X153700000Y-100750000D01*
X154300000Y-100150000D02*
X154300000Y-98950000D01*
D21*
X153040480Y-94540480D02*
X152150000Y-93650000D01*
X153900000Y-94540480D02*
X153040480Y-94540480D01*
X152150000Y-93650000D02*
X152150000Y-92300000D01*
D20*
X153700000Y-100750000D02*
X154300000Y-100150000D01*
D19*
%TO.N,VBUS*%
X153089511Y-91029511D02*
X154790489Y-91029511D01*
X152640000Y-89950000D02*
X152210000Y-89520000D01*
D22*
X150650480Y-83399520D02*
X154149520Y-83399520D01*
D19*
X152640000Y-90580000D02*
X152640000Y-89950000D01*
X151760000Y-85340000D02*
X151160000Y-85340000D01*
D22*
X149950000Y-84100000D02*
X150650480Y-83399520D01*
D19*
X155295500Y-90524500D02*
X155420000Y-90524500D01*
D22*
X154149520Y-83399520D02*
X154850000Y-84100000D01*
D19*
X151160000Y-85340000D02*
X150400000Y-86100000D01*
X150400000Y-86100000D02*
X150400000Y-86150000D01*
X152210000Y-85790000D02*
X151760000Y-85340000D01*
X155200000Y-90620000D02*
X155295500Y-90524500D01*
X154790489Y-91029511D02*
X155200000Y-90620000D01*
X153089511Y-91029511D02*
X152640000Y-90580000D01*
X152210000Y-89520000D02*
X152210000Y-85790000D01*
D22*
%TO.N,Net-(FB1-Pad2)*%
X154800000Y-83000000D02*
X157191000Y-83000000D01*
X146780000Y-77800000D02*
X146780000Y-81800000D01*
X147629521Y-83020521D02*
X149979479Y-83020521D01*
D23*
X158020000Y-82171000D02*
X157795500Y-82395500D01*
D22*
X158020000Y-77800000D02*
X158020000Y-81800000D01*
X146780000Y-81800000D02*
X146780000Y-82171000D01*
X157191000Y-83000000D02*
X157795500Y-82395500D01*
X149979479Y-83020521D02*
X150200000Y-82800000D01*
X150200000Y-82800000D02*
X154600000Y-82800000D01*
X154600000Y-82800000D02*
X154800000Y-83000000D01*
X146780000Y-82171000D02*
X147629521Y-83020521D01*
D23*
X158020000Y-81800000D02*
X158020000Y-82171000D01*
D22*
X157795500Y-82395500D02*
X157975000Y-82216000D01*
D23*
%TO.N,/D-*%
X152088567Y-84500489D02*
X152950489Y-84500489D01*
D21*
X153500000Y-85097838D02*
X153150000Y-85447838D01*
X153500000Y-85050000D02*
X153500000Y-85097838D01*
X153150000Y-85447838D02*
X153150000Y-89100000D01*
D23*
X151988556Y-84600500D02*
X152088567Y-84500489D01*
D21*
X153150000Y-89100000D02*
X154500000Y-90450000D01*
D23*
X152950489Y-84500489D02*
X153500000Y-85050000D01*
D21*
%TO.N,/D+*%
X153400000Y-90000000D02*
X153400000Y-90450000D01*
X152700000Y-85050000D02*
X152700000Y-89300000D01*
X152700000Y-89300000D02*
X153400000Y-90000000D01*
D19*
%TO.N,/D1*%
X146400000Y-93660500D02*
X146439500Y-93700000D01*
X145750000Y-88950000D02*
X146200000Y-89400000D01*
X146200000Y-90200000D02*
X146400000Y-90400000D01*
X146200000Y-89400000D02*
X146200000Y-90200000D01*
X146400000Y-90400000D02*
X146400000Y-93660500D01*
%TO.N,/D8*%
X145900000Y-103400000D02*
X145710489Y-103589511D01*
X146500000Y-100750000D02*
X145900000Y-101350000D01*
X145900000Y-101350000D02*
X145900000Y-103400000D01*
X145710489Y-104479511D02*
X144780000Y-105410000D01*
X145710489Y-103589511D02*
X145710489Y-104479511D01*
%TO.N,/D15*%
X149700000Y-106800000D02*
X153790000Y-106800000D01*
X149250000Y-102250000D02*
X149250000Y-106350000D01*
X150050000Y-101450000D02*
X149250000Y-102250000D01*
X149250000Y-106350000D02*
X149700000Y-106800000D01*
X151250000Y-101450000D02*
X150050000Y-101450000D01*
X153790000Y-106800000D02*
X154940000Y-107950000D01*
%TO.N,/D16*%
X157200000Y-102050000D02*
X157000000Y-102050000D01*
X157480000Y-107950000D02*
X158450000Y-106980000D01*
X158450000Y-106980000D02*
X158450000Y-105000000D01*
X156650000Y-101350000D02*
X156300000Y-101000000D01*
X158450000Y-105000000D02*
X158000000Y-104550000D01*
X157000000Y-102050000D02*
X156650000Y-101700000D01*
X158000000Y-104550000D02*
X158000000Y-102850000D01*
X156650000Y-101700000D02*
X156650000Y-101350000D01*
X158000000Y-102850000D02*
X157200000Y-102050000D01*
%TO.N,/D12*%
X146600000Y-103693507D02*
X146789511Y-103883018D01*
X146789511Y-104410489D02*
X146150000Y-105050000D01*
X147600000Y-101000000D02*
X146600000Y-102000000D01*
X146789511Y-103883018D02*
X146789511Y-104410489D01*
X146150000Y-105050000D02*
X146150000Y-106780000D01*
X146600000Y-102000000D02*
X146600000Y-103693507D01*
X146150000Y-106780000D02*
X147320000Y-107950000D01*
%TO.N,/MOSI*%
X159000000Y-101590223D02*
X159000000Y-102267388D01*
X158850000Y-104050000D02*
X160020000Y-105220000D01*
X159150000Y-99050000D02*
X158850000Y-99350000D01*
X159000000Y-102267388D02*
X158850000Y-102417388D01*
X158850000Y-102417388D02*
X158850000Y-104050000D01*
X158850000Y-101440223D02*
X159000000Y-101590223D01*
X158850000Y-99350000D02*
X158850000Y-101440223D01*
X160020000Y-105220000D02*
X160020000Y-105410000D01*
%TO.N,/~{RESET}*%
X158500000Y-93258438D02*
X158700000Y-93458438D01*
X158700000Y-96158438D02*
X158700000Y-96941562D01*
X158490480Y-98220525D02*
X158079511Y-98631494D01*
X157668506Y-98631494D02*
X157300000Y-99000000D01*
X157300000Y-99000000D02*
X157300000Y-99612985D01*
X157650000Y-99962985D02*
X157650000Y-100950000D01*
X158500000Y-87425657D02*
X158500000Y-93258438D01*
X158500000Y-95958438D02*
X158700000Y-96158438D01*
X158490480Y-97151082D02*
X158490480Y-98220525D01*
X159650000Y-86275657D02*
X158500000Y-87425657D01*
X157650000Y-100950000D02*
X157200000Y-101400000D01*
X158700000Y-96941562D02*
X158490480Y-97151082D01*
X159650000Y-85300000D02*
X159650000Y-86275657D01*
X158700000Y-94491562D02*
X158500000Y-94691562D01*
X158079511Y-98631494D02*
X157668506Y-98631494D01*
X158500000Y-94691562D02*
X158500000Y-95958438D01*
X158700000Y-93458438D02*
X158700000Y-94491562D01*
X157300000Y-99612985D02*
X157650000Y-99962985D01*
%TO.N,/QSPI_~{CS}*%
X146250000Y-104150000D02*
X146250000Y-101800000D01*
X147229511Y-92870489D02*
X147150000Y-92950000D01*
X147150000Y-92825000D02*
X147150000Y-93450000D01*
X147150000Y-93950000D02*
X147150000Y-93450000D01*
X149300000Y-93450000D02*
X149300000Y-93430447D01*
X147039511Y-100489511D02*
X146729511Y-100179511D01*
X146729511Y-100179511D02*
X146529511Y-100179511D01*
X146250000Y-99900000D02*
X146250000Y-94850000D01*
X146250000Y-101800000D02*
X147039511Y-101010489D01*
X146529511Y-100179511D02*
X146250000Y-99900000D01*
X147150000Y-92950000D02*
X147150000Y-93450000D01*
X148740042Y-92870489D02*
X147229511Y-92870489D01*
X146250000Y-94850000D02*
X147150000Y-93950000D01*
X147039511Y-101010489D02*
X147039511Y-100489511D01*
X146796318Y-89450000D02*
X146796318Y-92471318D01*
X146796318Y-92471318D02*
X147150000Y-92825000D01*
X149300000Y-93430447D02*
X148740042Y-92870489D01*
%TO.N,/D24*%
X146310000Y-87630000D02*
X144780000Y-87630000D01*
X154050000Y-88080000D02*
X153790000Y-87820000D01*
X157610500Y-94677322D02*
X158060960Y-94226862D01*
X157380000Y-91570000D02*
X156850000Y-91570000D01*
X154250000Y-85190000D02*
X154250000Y-84600000D01*
X157020000Y-88760000D02*
X156340000Y-88080000D01*
X157610500Y-96210000D02*
X157610500Y-94677322D01*
X157860000Y-92050000D02*
X157730000Y-91920000D01*
X156850000Y-91570000D02*
X156450000Y-91170000D01*
X147910000Y-86590000D02*
X147910000Y-87590000D01*
X146730000Y-88050000D02*
X146310000Y-87630000D01*
X158060960Y-94226862D02*
X158060960Y-93723137D01*
X147910000Y-87590000D02*
X147450000Y-88050000D01*
X157860000Y-93522177D02*
X157860000Y-92050000D01*
X149090000Y-85410000D02*
X147910000Y-86590000D01*
X149990000Y-85410000D02*
X149090000Y-85410000D01*
X157020000Y-90250000D02*
X157020000Y-88760000D01*
X154250000Y-84600000D02*
X153550000Y-83900000D01*
X156340000Y-88080000D02*
X154050000Y-88080000D01*
X156450000Y-91170000D02*
X156450000Y-90820000D01*
X153790000Y-87820000D02*
X153790000Y-85650000D01*
X158060960Y-93723137D02*
X157860000Y-93522177D01*
X156450000Y-90820000D02*
X157020000Y-90250000D01*
X151500000Y-83900000D02*
X149990000Y-85410000D01*
X157730000Y-91920000D02*
X157380000Y-91570000D01*
X147450000Y-88050000D02*
X146730000Y-88050000D01*
X153550000Y-83900000D02*
X151500000Y-83900000D01*
X153790000Y-85650000D02*
X154250000Y-85190000D01*
%TO.N,/VBUS_DET*%
X157110500Y-100234731D02*
X156950000Y-100074231D01*
X158380480Y-94359212D02*
X158380480Y-93590787D01*
X157350000Y-91000000D02*
X157050000Y-91000000D01*
X156950000Y-100074231D02*
X156950000Y-98800000D01*
X158380480Y-93590787D02*
X158180480Y-93390787D01*
X157450000Y-98300000D02*
X157959135Y-98300000D01*
X156950000Y-98800000D02*
X157450000Y-98300000D01*
X158180480Y-91830480D02*
X157350000Y-91000000D01*
X158180480Y-93390787D02*
X158180480Y-91830480D01*
X158150000Y-98109135D02*
X158150000Y-94589692D01*
X157959135Y-98300000D02*
X158150000Y-98109135D01*
X158150000Y-94589692D02*
X158380480Y-94359212D01*
%TO.N,/D21*%
X158050000Y-101380447D02*
X157820489Y-101609958D01*
X158850000Y-104800000D02*
X158850000Y-106780000D01*
X158850000Y-106780000D02*
X160020000Y-107950000D01*
X158450000Y-104400000D02*
X158850000Y-104800000D01*
X157820489Y-101609958D02*
X157820489Y-102170489D01*
X157820489Y-102170489D02*
X158450000Y-102800000D01*
X157850000Y-99400000D02*
X158050000Y-99650000D01*
X158450000Y-102800000D02*
X158450000Y-104400000D01*
X158050000Y-99650000D02*
X158050000Y-101380447D01*
%TD*%
%TA.AperFunction,Conductor*%
%TO.N,GND*%
G36*
X151660996Y-85639407D02*
G01*
X151672809Y-85649496D01*
X151900504Y-85877191D01*
X151928281Y-85931708D01*
X151929500Y-85947195D01*
X151929500Y-89470326D01*
X151929243Y-89473826D01*
X151927702Y-89478314D01*
X151928045Y-89487449D01*
X151929430Y-89524333D01*
X151929500Y-89528048D01*
X151929500Y-89546090D01*
X151930284Y-89550296D01*
X151930572Y-89554739D01*
X151931623Y-89582735D01*
X151935575Y-89591934D01*
X151941938Y-89612876D01*
X151943773Y-89622728D01*
X151948568Y-89630507D01*
X151956567Y-89643484D01*
X151963250Y-89656351D01*
X151972871Y-89678743D01*
X151976617Y-89683304D01*
X151980145Y-89686832D01*
X151992468Y-89702423D01*
X151993810Y-89703903D01*
X151998605Y-89711682D01*
X152019943Y-89727908D01*
X152030013Y-89736700D01*
X152330504Y-90037191D01*
X152358281Y-90091708D01*
X152359500Y-90107195D01*
X152359500Y-90530326D01*
X152359243Y-90533826D01*
X152357702Y-90538314D01*
X152358045Y-90547449D01*
X152359430Y-90584333D01*
X152359500Y-90588048D01*
X152359500Y-90606090D01*
X152360284Y-90610296D01*
X152360572Y-90614739D01*
X152361623Y-90642735D01*
X152365575Y-90651934D01*
X152371938Y-90672876D01*
X152373773Y-90682728D01*
X152378568Y-90690507D01*
X152386567Y-90703484D01*
X152393250Y-90716351D01*
X152402871Y-90738743D01*
X152406617Y-90743304D01*
X152410145Y-90746832D01*
X152422468Y-90762423D01*
X152423810Y-90763903D01*
X152428605Y-90771682D01*
X152449943Y-90787908D01*
X152460013Y-90796700D01*
X152856045Y-91192732D01*
X152858337Y-91195387D01*
X152860420Y-91199649D01*
X152871089Y-91209546D01*
X152894178Y-91230964D01*
X152896854Y-91233541D01*
X152909616Y-91246303D01*
X152913135Y-91248717D01*
X152916491Y-91251664D01*
X152930327Y-91264498D01*
X152930330Y-91264500D01*
X152937029Y-91270714D01*
X152945516Y-91274100D01*
X152945518Y-91274101D01*
X152946332Y-91274426D01*
X152965642Y-91284737D01*
X152973900Y-91290402D01*
X152982794Y-91292513D01*
X152982795Y-91292513D01*
X152997624Y-91296032D01*
X153011450Y-91300405D01*
X153034084Y-91309435D01*
X153039958Y-91310011D01*
X153044942Y-91310011D01*
X153064697Y-91312323D01*
X153066681Y-91312420D01*
X153075572Y-91314530D01*
X153102134Y-91310915D01*
X153115485Y-91310011D01*
X154740815Y-91310011D01*
X154744315Y-91310268D01*
X154748803Y-91311809D01*
X154757938Y-91311466D01*
X154794822Y-91310081D01*
X154798537Y-91310011D01*
X154816579Y-91310011D01*
X154820785Y-91309227D01*
X154825228Y-91308939D01*
X154844089Y-91308231D01*
X154853224Y-91307888D01*
X154862423Y-91303936D01*
X154883365Y-91297573D01*
X154893217Y-91295738D01*
X154913973Y-91282944D01*
X154926841Y-91276260D01*
X154949232Y-91266640D01*
X154953793Y-91262894D01*
X154957321Y-91259366D01*
X154972912Y-91247043D01*
X154974392Y-91245701D01*
X154982171Y-91240906D01*
X154998397Y-91219568D01*
X155007189Y-91209498D01*
X155106088Y-91110599D01*
X155160605Y-91082822D01*
X155213975Y-91089139D01*
X155263238Y-91109544D01*
X155269666Y-91110390D01*
X155269669Y-91110391D01*
X155413566Y-91129335D01*
X155420000Y-91130182D01*
X155576762Y-91109544D01*
X155722841Y-91049036D01*
X155848282Y-90952782D01*
X155944536Y-90827341D01*
X155947018Y-90821350D01*
X155947021Y-90821344D01*
X155977016Y-90748927D01*
X156016752Y-90702401D01*
X156028991Y-90699462D01*
X156010679Y-90647909D01*
X156011490Y-90632300D01*
X156024835Y-90530934D01*
X156025682Y-90524500D01*
X156005044Y-90367738D01*
X155944536Y-90221659D01*
X155848282Y-90096218D01*
X155722841Y-89999964D01*
X155576762Y-89939456D01*
X155445569Y-89922184D01*
X155426434Y-89919665D01*
X155420000Y-89918818D01*
X155413566Y-89919665D01*
X155394431Y-89922184D01*
X155263238Y-89939456D01*
X155117159Y-89999964D01*
X154991718Y-90096218D01*
X154991570Y-90096026D01*
X154940191Y-90122204D01*
X154879759Y-90112633D01*
X154849706Y-90089047D01*
X154837006Y-90074308D01*
X154837004Y-90074306D01*
X154832400Y-90068963D01*
X154712095Y-89990985D01*
X154574739Y-89949907D01*
X154535756Y-89949669D01*
X154477682Y-89930407D01*
X154466357Y-89920675D01*
X153529496Y-88983814D01*
X153501719Y-88929297D01*
X153500500Y-88913810D01*
X153500500Y-88166195D01*
X153519407Y-88108004D01*
X153568907Y-88072040D01*
X153630093Y-88072040D01*
X153669504Y-88096191D01*
X153816534Y-88243221D01*
X153818826Y-88245876D01*
X153820909Y-88250138D01*
X153851753Y-88278750D01*
X153854667Y-88281453D01*
X153857343Y-88284030D01*
X153870105Y-88296792D01*
X153873624Y-88299206D01*
X153876980Y-88302153D01*
X153890816Y-88314987D01*
X153890819Y-88314989D01*
X153897518Y-88321203D01*
X153906005Y-88324589D01*
X153906007Y-88324590D01*
X153906821Y-88324915D01*
X153926131Y-88335226D01*
X153934389Y-88340891D01*
X153943283Y-88343002D01*
X153943284Y-88343002D01*
X153958113Y-88346521D01*
X153971939Y-88350894D01*
X153994573Y-88359924D01*
X154000447Y-88360500D01*
X154005431Y-88360500D01*
X154025186Y-88362812D01*
X154027170Y-88362909D01*
X154036061Y-88365019D01*
X154062623Y-88361404D01*
X154075974Y-88360500D01*
X156182805Y-88360500D01*
X156240996Y-88379407D01*
X156252809Y-88389496D01*
X156710504Y-88847191D01*
X156738281Y-88901708D01*
X156739500Y-88917195D01*
X156739500Y-90092805D01*
X156720593Y-90150996D01*
X156710504Y-90162809D01*
X156286779Y-90586534D01*
X156284124Y-90588826D01*
X156279862Y-90590909D01*
X156270009Y-90601531D01*
X156248547Y-90624667D01*
X156245970Y-90627343D01*
X156233208Y-90640105D01*
X156230794Y-90643624D01*
X156227847Y-90646980D01*
X156215013Y-90660816D01*
X156215011Y-90660819D01*
X156208797Y-90667518D01*
X156205411Y-90676005D01*
X156205410Y-90676007D01*
X156205085Y-90676821D01*
X156194777Y-90696126D01*
X156191284Y-90701219D01*
X156147218Y-90735099D01*
X156164744Y-90763700D01*
X156167362Y-90791647D01*
X156167092Y-90797170D01*
X156164982Y-90806061D01*
X156166214Y-90815114D01*
X156166214Y-90815116D01*
X156168596Y-90832616D01*
X156169500Y-90845966D01*
X156169500Y-91120326D01*
X156169243Y-91123826D01*
X156167702Y-91128314D01*
X156168045Y-91137449D01*
X156169430Y-91174333D01*
X156169500Y-91178048D01*
X156169500Y-91196090D01*
X156170284Y-91200296D01*
X156170572Y-91204739D01*
X156170929Y-91214235D01*
X156171623Y-91232735D01*
X156175575Y-91241934D01*
X156181938Y-91262876D01*
X156183773Y-91272728D01*
X156188568Y-91280507D01*
X156196567Y-91293484D01*
X156203250Y-91306351D01*
X156212871Y-91328743D01*
X156216617Y-91333304D01*
X156220145Y-91336832D01*
X156232468Y-91352423D01*
X156233810Y-91353903D01*
X156238605Y-91361682D01*
X156259943Y-91377908D01*
X156270013Y-91386700D01*
X156616534Y-91733221D01*
X156618826Y-91735876D01*
X156620909Y-91740138D01*
X156627608Y-91746352D01*
X156654667Y-91771453D01*
X156657343Y-91774030D01*
X156670105Y-91786792D01*
X156673624Y-91789206D01*
X156676980Y-91792153D01*
X156690814Y-91804985D01*
X156690817Y-91804987D01*
X156697518Y-91811203D01*
X156706007Y-91814590D01*
X156706817Y-91814913D01*
X156726131Y-91825226D01*
X156734388Y-91830890D01*
X156751210Y-91834882D01*
X156758108Y-91836519D01*
X156771934Y-91840892D01*
X156794573Y-91849924D01*
X156800447Y-91850500D01*
X156805436Y-91850500D01*
X156825178Y-91852810D01*
X156827167Y-91852907D01*
X156836061Y-91855018D01*
X156862617Y-91851404D01*
X156875966Y-91850500D01*
X157222805Y-91850500D01*
X157280996Y-91869407D01*
X157292809Y-91879496D01*
X157550504Y-92137191D01*
X157578281Y-92191708D01*
X157579500Y-92207195D01*
X157579500Y-93472503D01*
X157579243Y-93476003D01*
X157577702Y-93480491D01*
X157578045Y-93489626D01*
X157579430Y-93526510D01*
X157579500Y-93530225D01*
X157579500Y-93548267D01*
X157580284Y-93552473D01*
X157580572Y-93556916D01*
X157581623Y-93584912D01*
X157585575Y-93594111D01*
X157591938Y-93615053D01*
X157593773Y-93624905D01*
X157598568Y-93632684D01*
X157606567Y-93645661D01*
X157613250Y-93658528D01*
X157622871Y-93680920D01*
X157626617Y-93685481D01*
X157630145Y-93689009D01*
X157642468Y-93704600D01*
X157643810Y-93706080D01*
X157648605Y-93713859D01*
X157669943Y-93730085D01*
X157680013Y-93738877D01*
X157751464Y-93810328D01*
X157779241Y-93864845D01*
X157780460Y-93880332D01*
X157780460Y-94069667D01*
X157761553Y-94127858D01*
X157751464Y-94139671D01*
X157447279Y-94443856D01*
X157444624Y-94446148D01*
X157440362Y-94448231D01*
X157434147Y-94454930D01*
X157434148Y-94454930D01*
X157409047Y-94481989D01*
X157406470Y-94484665D01*
X157393708Y-94497427D01*
X157391294Y-94500946D01*
X157388347Y-94504302D01*
X157375513Y-94518138D01*
X157375511Y-94518141D01*
X157369297Y-94524840D01*
X157365911Y-94533327D01*
X157365910Y-94533329D01*
X157365585Y-94534143D01*
X157355274Y-94553453D01*
X157349609Y-94561711D01*
X157343978Y-94585440D01*
X157339608Y-94599256D01*
X157330576Y-94621895D01*
X157330000Y-94627769D01*
X157330000Y-94632759D01*
X157327690Y-94652501D01*
X157327593Y-94654488D01*
X157325482Y-94663383D01*
X157328731Y-94687255D01*
X157329096Y-94689938D01*
X157330000Y-94703288D01*
X157330000Y-95740541D01*
X157311093Y-95798732D01*
X157293191Y-95815503D01*
X157294118Y-95816593D01*
X157288742Y-95821168D01*
X157282780Y-95824930D01*
X157278113Y-95830214D01*
X157278111Y-95830216D01*
X157192544Y-95927103D01*
X157192542Y-95927105D01*
X157187877Y-95932388D01*
X157126947Y-96062163D01*
X157125862Y-96069132D01*
X157125861Y-96069135D01*
X157114632Y-96141258D01*
X157104891Y-96203823D01*
X157105806Y-96210820D01*
X157105806Y-96210821D01*
X157118167Y-96305351D01*
X157123480Y-96345979D01*
X157181220Y-96477203D01*
X157227345Y-96532075D01*
X157268931Y-96581549D01*
X157268934Y-96581551D01*
X157273470Y-96586948D01*
X157392813Y-96666390D01*
X157485101Y-96695222D01*
X157522925Y-96707039D01*
X157522926Y-96707039D01*
X157529657Y-96709142D01*
X157601328Y-96710456D01*
X157665945Y-96711641D01*
X157665947Y-96711641D01*
X157672999Y-96711770D01*
X157744461Y-96692287D01*
X157805574Y-96695222D01*
X157853292Y-96733519D01*
X157869500Y-96787801D01*
X157869500Y-97920500D01*
X157850593Y-97978691D01*
X157801093Y-98014655D01*
X157770500Y-98019500D01*
X157499674Y-98019500D01*
X157496174Y-98019243D01*
X157491686Y-98017702D01*
X157482551Y-98018045D01*
X157445667Y-98019430D01*
X157441952Y-98019500D01*
X157423910Y-98019500D01*
X157419704Y-98020284D01*
X157415261Y-98020572D01*
X157396400Y-98021280D01*
X157387265Y-98021623D01*
X157378066Y-98025575D01*
X157357124Y-98031938D01*
X157347272Y-98033773D01*
X157339493Y-98038568D01*
X157326516Y-98046567D01*
X157313649Y-98053250D01*
X157291257Y-98062871D01*
X157286696Y-98066617D01*
X157283168Y-98070145D01*
X157267577Y-98082468D01*
X157266097Y-98083810D01*
X157258318Y-98088605D01*
X157242092Y-98109943D01*
X157233300Y-98120013D01*
X156786779Y-98566534D01*
X156784124Y-98568826D01*
X156779862Y-98570909D01*
X156773647Y-98577608D01*
X156773648Y-98577608D01*
X156748547Y-98604667D01*
X156745970Y-98607343D01*
X156733208Y-98620105D01*
X156730794Y-98623624D01*
X156727847Y-98626980D01*
X156715013Y-98640816D01*
X156715011Y-98640819D01*
X156708797Y-98647518D01*
X156705411Y-98656005D01*
X156705410Y-98656007D01*
X156705085Y-98656821D01*
X156694774Y-98676131D01*
X156689109Y-98684389D01*
X156683478Y-98708118D01*
X156679108Y-98721934D01*
X156670076Y-98744573D01*
X156669500Y-98750447D01*
X156669500Y-98755437D01*
X156667190Y-98775179D01*
X156667093Y-98777166D01*
X156664982Y-98786061D01*
X156667979Y-98808082D01*
X156668596Y-98812616D01*
X156669500Y-98825966D01*
X156669500Y-99974177D01*
X156660116Y-100016248D01*
X156626947Y-100086894D01*
X156625862Y-100093863D01*
X156625861Y-100093866D01*
X156611263Y-100187631D01*
X156604891Y-100228554D01*
X156605806Y-100235551D01*
X156605806Y-100235552D01*
X156610678Y-100272811D01*
X156623480Y-100370710D01*
X156641178Y-100410932D01*
X156647308Y-100471808D01*
X156616485Y-100524662D01*
X156560481Y-100549305D01*
X156512515Y-100541257D01*
X156512095Y-100540985D01*
X156374739Y-100499907D01*
X156291497Y-100499398D01*
X156238427Y-100499074D01*
X156238426Y-100499074D01*
X156231376Y-100499031D01*
X156224599Y-100500968D01*
X156224598Y-100500968D01*
X156100309Y-100536490D01*
X156100307Y-100536491D01*
X156093529Y-100538428D01*
X155972280Y-100614930D01*
X155967613Y-100620214D01*
X155967611Y-100620216D01*
X155882044Y-100717103D01*
X155882042Y-100717105D01*
X155877377Y-100722388D01*
X155874381Y-100728770D01*
X155874380Y-100728771D01*
X155871985Y-100733873D01*
X155816447Y-100852163D01*
X155815362Y-100859132D01*
X155815361Y-100859135D01*
X155803016Y-100938428D01*
X155794391Y-100993823D01*
X155795306Y-101000820D01*
X155795306Y-101000821D01*
X155804915Y-101074307D01*
X155812980Y-101135979D01*
X155815821Y-101142435D01*
X155815821Y-101142436D01*
X155861337Y-101245878D01*
X155870720Y-101267203D01*
X155902230Y-101304689D01*
X155958431Y-101371549D01*
X155958434Y-101371551D01*
X155962970Y-101376948D01*
X155968841Y-101380856D01*
X155968842Y-101380857D01*
X155981143Y-101389045D01*
X156082313Y-101456390D01*
X156181876Y-101487495D01*
X156212425Y-101497039D01*
X156212426Y-101497039D01*
X156219157Y-101499142D01*
X156247078Y-101499654D01*
X156272316Y-101500117D01*
X156330150Y-101520088D01*
X156365200Y-101570239D01*
X156369500Y-101599100D01*
X156369500Y-101650326D01*
X156369243Y-101653826D01*
X156367702Y-101658314D01*
X156368045Y-101667449D01*
X156369430Y-101704333D01*
X156369500Y-101708048D01*
X156369500Y-101726090D01*
X156370284Y-101730296D01*
X156370572Y-101734739D01*
X156371623Y-101762735D01*
X156375575Y-101771934D01*
X156381938Y-101792876D01*
X156383773Y-101802728D01*
X156388568Y-101810507D01*
X156396567Y-101823484D01*
X156403250Y-101836351D01*
X156412871Y-101858743D01*
X156416617Y-101863304D01*
X156420145Y-101866832D01*
X156432468Y-101882423D01*
X156433810Y-101883903D01*
X156438605Y-101891682D01*
X156459943Y-101907908D01*
X156470013Y-101916700D01*
X156766534Y-102213221D01*
X156768826Y-102215876D01*
X156770909Y-102220138D01*
X156777608Y-102226352D01*
X156804667Y-102251453D01*
X156807343Y-102254030D01*
X156820105Y-102266792D01*
X156823624Y-102269206D01*
X156826980Y-102272153D01*
X156840816Y-102284987D01*
X156840819Y-102284989D01*
X156847518Y-102291203D01*
X156856005Y-102294589D01*
X156856007Y-102294590D01*
X156856821Y-102294915D01*
X156876131Y-102305226D01*
X156884389Y-102310891D01*
X156893283Y-102313002D01*
X156893284Y-102313002D01*
X156908113Y-102316521D01*
X156921939Y-102320894D01*
X156944573Y-102329924D01*
X156950447Y-102330500D01*
X156955431Y-102330500D01*
X156975186Y-102332812D01*
X156977170Y-102332909D01*
X156986061Y-102335019D01*
X157012622Y-102331404D01*
X157025973Y-102330500D01*
X157042805Y-102330500D01*
X157100996Y-102349407D01*
X157112809Y-102359496D01*
X157690504Y-102937191D01*
X157718281Y-102991708D01*
X157719500Y-103007195D01*
X157719500Y-104500326D01*
X157719243Y-104503826D01*
X157717702Y-104508314D01*
X157718045Y-104517449D01*
X157719430Y-104554333D01*
X157719500Y-104558048D01*
X157719500Y-104576090D01*
X157720284Y-104580296D01*
X157720572Y-104584739D01*
X157721623Y-104612735D01*
X157725575Y-104621934D01*
X157731938Y-104642876D01*
X157733773Y-104652728D01*
X157740851Y-104664210D01*
X157746567Y-104673484D01*
X157753250Y-104686351D01*
X157762871Y-104708743D01*
X157766617Y-104713304D01*
X157770145Y-104716832D01*
X157782468Y-104732423D01*
X157783810Y-104733903D01*
X157788605Y-104741682D01*
X157809943Y-104757908D01*
X157820013Y-104766700D01*
X158140504Y-105087191D01*
X158168281Y-105141708D01*
X158169500Y-105157195D01*
X158169500Y-106621000D01*
X158150593Y-106679191D01*
X158101093Y-106715155D01*
X158070500Y-106720000D01*
X154147695Y-106720000D01*
X154089504Y-106701093D01*
X154077691Y-106691004D01*
X154023466Y-106636779D01*
X154021174Y-106634124D01*
X154019091Y-106629862D01*
X153985333Y-106598547D01*
X153982657Y-106595970D01*
X153969895Y-106583208D01*
X153966376Y-106580794D01*
X153963020Y-106577847D01*
X153949184Y-106565013D01*
X153949181Y-106565011D01*
X153942482Y-106558797D01*
X153933995Y-106555411D01*
X153933993Y-106555410D01*
X153933179Y-106555085D01*
X153913869Y-106544774D01*
X153913153Y-106544283D01*
X153905611Y-106539109D01*
X153881882Y-106533478D01*
X153868066Y-106529108D01*
X153851921Y-106522667D01*
X153851922Y-106522667D01*
X153845427Y-106520076D01*
X153839553Y-106519500D01*
X153834563Y-106519500D01*
X153814821Y-106517190D01*
X153812834Y-106517093D01*
X153803939Y-106514982D01*
X153777384Y-106518596D01*
X153764034Y-106519500D01*
X149857195Y-106519500D01*
X149799004Y-106500593D01*
X149787191Y-106490504D01*
X149559496Y-106262809D01*
X149531719Y-106208292D01*
X149530500Y-106192805D01*
X149530500Y-102407195D01*
X149549407Y-102349004D01*
X149559496Y-102337191D01*
X150137191Y-101759496D01*
X150191708Y-101731719D01*
X150207195Y-101730500D01*
X150785785Y-101730500D01*
X150843976Y-101749407D01*
X150861568Y-101765798D01*
X150912970Y-101826948D01*
X150918841Y-101830856D01*
X150918842Y-101830857D01*
X150926534Y-101835977D01*
X151032313Y-101906390D01*
X151116701Y-101932754D01*
X151162425Y-101947039D01*
X151162426Y-101947039D01*
X151169157Y-101949142D01*
X151240828Y-101950456D01*
X151305445Y-101951641D01*
X151305447Y-101951641D01*
X151312499Y-101951770D01*
X151319302Y-101949915D01*
X151319304Y-101949915D01*
X151394503Y-101929413D01*
X151450817Y-101914060D01*
X151572991Y-101839045D01*
X151578360Y-101833114D01*
X151664468Y-101737982D01*
X151669200Y-101732754D01*
X151712287Y-101643823D01*
X153194391Y-101643823D01*
X153195306Y-101650820D01*
X153195306Y-101650821D01*
X153210341Y-101765798D01*
X153212980Y-101785979D01*
X153215821Y-101792435D01*
X153215821Y-101792436D01*
X153264243Y-101902482D01*
X153270720Y-101917203D01*
X153299668Y-101951641D01*
X153358431Y-102021549D01*
X153358434Y-102021551D01*
X153362970Y-102026948D01*
X153368841Y-102030856D01*
X153368842Y-102030857D01*
X153381143Y-102039045D01*
X153482313Y-102106390D01*
X153582920Y-102137821D01*
X153612425Y-102147039D01*
X153612426Y-102147039D01*
X153619157Y-102149142D01*
X153690828Y-102150456D01*
X153755445Y-102151641D01*
X153755447Y-102151641D01*
X153762499Y-102151770D01*
X153769302Y-102149915D01*
X153769304Y-102149915D01*
X153856541Y-102126131D01*
X153900817Y-102114060D01*
X154022991Y-102039045D01*
X154030403Y-102030857D01*
X154114468Y-101937982D01*
X154119200Y-101932754D01*
X154181710Y-101803733D01*
X154183536Y-101792883D01*
X154204862Y-101666124D01*
X154204862Y-101666120D01*
X154205496Y-101662354D01*
X154205546Y-101658314D01*
X154205600Y-101653826D01*
X154205647Y-101650000D01*
X154185323Y-101508082D01*
X154132879Y-101392737D01*
X154128905Y-101383996D01*
X154128904Y-101383995D01*
X154125984Y-101377572D01*
X154084500Y-101329427D01*
X154060840Y-101273004D01*
X154060500Y-101264806D01*
X154060500Y-100940332D01*
X154079407Y-100882141D01*
X154089496Y-100870328D01*
X154520250Y-100439574D01*
X154536552Y-100426409D01*
X154539100Y-100424764D01*
X154539101Y-100424763D01*
X154545976Y-100420324D01*
X154566476Y-100394320D01*
X154570881Y-100389362D01*
X154573205Y-100386619D01*
X154576090Y-100383734D01*
X154587049Y-100368399D01*
X154589828Y-100364698D01*
X154615212Y-100332499D01*
X154620277Y-100326074D01*
X154622830Y-100318805D01*
X154623737Y-100317059D01*
X154628216Y-100310791D01*
X154642305Y-100263682D01*
X154643746Y-100259248D01*
X154657980Y-100218714D01*
X154657981Y-100218710D01*
X154660043Y-100212838D01*
X154660500Y-100207561D01*
X154660500Y-100205441D01*
X154660567Y-100203895D01*
X154660718Y-100202112D01*
X154662603Y-100195808D01*
X154660576Y-100144219D01*
X154660500Y-100140332D01*
X154660500Y-99335756D01*
X154679407Y-99277565D01*
X154686102Y-99269320D01*
X154714468Y-99237982D01*
X154714468Y-99237981D01*
X154719200Y-99232754D01*
X154781710Y-99103733D01*
X154785875Y-99078982D01*
X154804862Y-98966124D01*
X154804862Y-98966120D01*
X154805496Y-98962354D01*
X154805647Y-98950000D01*
X154785323Y-98808082D01*
X154733127Y-98693282D01*
X154728905Y-98683996D01*
X154728904Y-98683995D01*
X154725984Y-98677572D01*
X154665582Y-98607472D01*
X154637005Y-98574307D01*
X154637004Y-98574306D01*
X154632400Y-98568963D01*
X154512095Y-98490985D01*
X154374739Y-98449907D01*
X154291497Y-98449398D01*
X154238427Y-98449074D01*
X154238426Y-98449074D01*
X154231376Y-98449031D01*
X154224599Y-98450968D01*
X154224598Y-98450968D01*
X154100309Y-98486490D01*
X154100307Y-98486491D01*
X154093529Y-98488428D01*
X153972280Y-98564930D01*
X153967613Y-98570214D01*
X153967611Y-98570216D01*
X153882044Y-98667103D01*
X153882042Y-98667105D01*
X153877377Y-98672388D01*
X153874381Y-98678770D01*
X153874380Y-98678771D01*
X153854847Y-98720374D01*
X153816447Y-98802163D01*
X153815362Y-98809132D01*
X153815361Y-98809135D01*
X153800680Y-98903430D01*
X153794391Y-98943823D01*
X153795306Y-98950820D01*
X153795306Y-98950821D01*
X153796814Y-98962354D01*
X153812980Y-99085979D01*
X153815821Y-99092435D01*
X153815821Y-99092436D01*
X153823586Y-99110082D01*
X153870720Y-99217203D01*
X153883792Y-99232754D01*
X153916283Y-99271407D01*
X153939253Y-99328117D01*
X153939500Y-99335109D01*
X153939500Y-99959668D01*
X153920593Y-100017859D01*
X153910504Y-100029672D01*
X153479750Y-100460426D01*
X153463448Y-100473591D01*
X153454024Y-100479676D01*
X153448956Y-100486105D01*
X153433524Y-100505680D01*
X153429119Y-100510638D01*
X153426795Y-100513381D01*
X153423910Y-100516266D01*
X153412951Y-100531601D01*
X153410174Y-100535300D01*
X153379723Y-100573926D01*
X153377170Y-100581195D01*
X153376263Y-100582941D01*
X153371784Y-100589209D01*
X153369440Y-100597047D01*
X153357695Y-100636318D01*
X153356254Y-100640752D01*
X153348418Y-100663067D01*
X153339957Y-100687162D01*
X153339500Y-100692439D01*
X153339500Y-100694559D01*
X153339433Y-100696105D01*
X153339282Y-100697888D01*
X153337397Y-100704192D01*
X153337718Y-100712367D01*
X153337718Y-100712369D01*
X153339424Y-100755781D01*
X153339500Y-100759668D01*
X153339500Y-101264588D01*
X153320593Y-101322779D01*
X153314704Y-101330122D01*
X153282050Y-101367096D01*
X153282048Y-101367099D01*
X153277377Y-101372388D01*
X153216447Y-101502163D01*
X153215362Y-101509132D01*
X153215361Y-101509135D01*
X153206798Y-101564133D01*
X153194391Y-101643823D01*
X151712287Y-101643823D01*
X151731710Y-101603733D01*
X151738373Y-101564133D01*
X151754862Y-101466124D01*
X151754862Y-101466120D01*
X151755496Y-101462354D01*
X151755647Y-101450000D01*
X151735323Y-101308082D01*
X151706903Y-101245575D01*
X151678905Y-101183996D01*
X151678904Y-101183995D01*
X151675984Y-101177572D01*
X151615582Y-101107472D01*
X151587005Y-101074307D01*
X151587004Y-101074306D01*
X151582400Y-101068963D01*
X151462095Y-100990985D01*
X151324739Y-100949907D01*
X151241497Y-100949398D01*
X151188427Y-100949074D01*
X151188426Y-100949074D01*
X151181376Y-100949031D01*
X151174599Y-100950968D01*
X151174598Y-100950968D01*
X151050309Y-100986490D01*
X151050307Y-100986491D01*
X151043529Y-100988428D01*
X150922280Y-101064930D01*
X150917613Y-101070214D01*
X150917611Y-101070216D01*
X150891091Y-101100245D01*
X150859533Y-101135979D01*
X150859484Y-101136034D01*
X150806793Y-101167134D01*
X150785280Y-101169500D01*
X150099674Y-101169500D01*
X150096174Y-101169243D01*
X150091686Y-101167702D01*
X150082551Y-101168045D01*
X150045667Y-101169430D01*
X150041952Y-101169500D01*
X150023910Y-101169500D01*
X150019704Y-101170284D01*
X150015261Y-101170572D01*
X149996400Y-101171280D01*
X149987265Y-101171623D01*
X149978066Y-101175575D01*
X149957124Y-101181938D01*
X149947272Y-101183773D01*
X149939493Y-101188568D01*
X149926516Y-101196567D01*
X149913649Y-101203250D01*
X149891257Y-101212871D01*
X149886696Y-101216617D01*
X149883168Y-101220145D01*
X149867577Y-101232468D01*
X149866097Y-101233810D01*
X149858318Y-101238605D01*
X149842092Y-101259943D01*
X149833300Y-101270013D01*
X149086779Y-102016534D01*
X149084124Y-102018826D01*
X149079862Y-102020909D01*
X149059614Y-102042737D01*
X149048547Y-102054667D01*
X149045970Y-102057343D01*
X149033208Y-102070105D01*
X149030794Y-102073624D01*
X149027847Y-102076980D01*
X149015013Y-102090816D01*
X149015011Y-102090819D01*
X149008797Y-102097518D01*
X149005411Y-102106005D01*
X149005410Y-102106007D01*
X149005085Y-102106821D01*
X148994774Y-102126131D01*
X148989109Y-102134389D01*
X148983478Y-102158118D01*
X148979108Y-102171934D01*
X148970076Y-102194573D01*
X148969500Y-102200447D01*
X148969500Y-102205437D01*
X148967190Y-102225179D01*
X148967093Y-102227166D01*
X148964982Y-102236061D01*
X148968596Y-102262616D01*
X148969500Y-102275966D01*
X148969500Y-106300326D01*
X148969243Y-106303826D01*
X148967702Y-106308314D01*
X148968045Y-106317449D01*
X148969430Y-106354333D01*
X148969500Y-106358048D01*
X148969500Y-106376090D01*
X148970284Y-106380296D01*
X148970572Y-106384739D01*
X148971623Y-106412735D01*
X148975575Y-106421934D01*
X148981938Y-106442876D01*
X148983773Y-106452728D01*
X148988568Y-106460507D01*
X148996567Y-106473484D01*
X149003250Y-106486351D01*
X149012871Y-106508743D01*
X149016617Y-106513304D01*
X149020145Y-106516832D01*
X149032468Y-106532423D01*
X149033810Y-106533903D01*
X149038605Y-106541682D01*
X149045881Y-106547215D01*
X149052020Y-106553985D01*
X149049220Y-106556524D01*
X149074155Y-106592465D01*
X149072823Y-106653636D01*
X149035790Y-106702341D01*
X148979357Y-106720000D01*
X146529500Y-106720000D01*
X146471309Y-106701093D01*
X146435345Y-106651593D01*
X146430500Y-106621000D01*
X146430500Y-105207195D01*
X146449407Y-105149004D01*
X146459496Y-105137191D01*
X146952732Y-104643955D01*
X146955387Y-104641663D01*
X146959649Y-104639580D01*
X146990964Y-104605822D01*
X146993541Y-104603146D01*
X147006303Y-104590384D01*
X147008723Y-104586855D01*
X147011660Y-104583510D01*
X147029517Y-104564262D01*
X147082953Y-104534460D01*
X147143702Y-104541759D01*
X147149333Y-104544589D01*
X147195812Y-104569825D01*
X147290235Y-104621092D01*
X147332016Y-104632053D01*
X147448464Y-104662603D01*
X147448468Y-104662604D01*
X147454233Y-104664116D01*
X147460194Y-104664210D01*
X147460197Y-104664210D01*
X147538996Y-104665447D01*
X147623760Y-104666779D01*
X147629575Y-104665447D01*
X147629577Y-104665447D01*
X147783206Y-104630262D01*
X147783209Y-104630261D01*
X147789029Y-104628928D01*
X147804610Y-104621092D01*
X147879358Y-104583497D01*
X147940498Y-104552747D01*
X147945035Y-104548872D01*
X147945038Y-104548870D01*
X148064888Y-104446508D01*
X148064891Y-104446505D01*
X148069423Y-104442634D01*
X148072904Y-104437790D01*
X148164877Y-104309796D01*
X148164878Y-104309794D01*
X148168361Y-104304947D01*
X148231601Y-104147634D01*
X148255490Y-103979778D01*
X148255645Y-103965000D01*
X148235276Y-103796680D01*
X148175345Y-103638077D01*
X148079312Y-103498349D01*
X147952721Y-103385560D01*
X147802881Y-103306224D01*
X147720661Y-103285572D01*
X147644231Y-103266373D01*
X147644228Y-103266373D01*
X147638441Y-103264919D01*
X147552841Y-103264471D01*
X147474861Y-103264062D01*
X147474859Y-103264062D01*
X147468895Y-103264031D01*
X147463099Y-103265423D01*
X147463095Y-103265423D01*
X147355703Y-103291207D01*
X147304032Y-103303612D01*
X147228701Y-103342493D01*
X147158675Y-103378636D01*
X147158673Y-103378638D01*
X147153369Y-103381375D01*
X147148874Y-103385296D01*
X147148870Y-103385299D01*
X147044580Y-103476277D01*
X146988300Y-103500282D01*
X146928659Y-103486622D01*
X146888438Y-103440515D01*
X146880500Y-103401674D01*
X146880500Y-102157195D01*
X146899407Y-102099004D01*
X146909496Y-102087191D01*
X147468184Y-101528503D01*
X147522701Y-101500726D01*
X147540001Y-101499524D01*
X147581886Y-101500292D01*
X147655445Y-101501641D01*
X147655447Y-101501641D01*
X147662499Y-101501770D01*
X147669302Y-101499915D01*
X147669304Y-101499915D01*
X147744503Y-101479413D01*
X147800817Y-101464060D01*
X147922991Y-101389045D01*
X147930403Y-101380857D01*
X148014468Y-101287982D01*
X148019200Y-101282754D01*
X148073552Y-101170572D01*
X148078634Y-101160082D01*
X148081710Y-101153733D01*
X148085875Y-101128982D01*
X148104862Y-101016124D01*
X148104862Y-101016120D01*
X148105496Y-101012354D01*
X148105647Y-101000000D01*
X148085323Y-100858082D01*
X148025984Y-100727572D01*
X147932400Y-100618963D01*
X147812095Y-100540985D01*
X147674739Y-100499907D01*
X147591497Y-100499398D01*
X147538427Y-100499074D01*
X147538426Y-100499074D01*
X147531376Y-100499031D01*
X147524599Y-100500968D01*
X147524598Y-100500968D01*
X147492045Y-100510272D01*
X147444235Y-100523936D01*
X147383090Y-100521747D01*
X147334908Y-100484036D01*
X147322002Y-100444429D01*
X147320240Y-100444826D01*
X147318231Y-100435911D01*
X147317888Y-100426776D01*
X147313936Y-100417577D01*
X147307573Y-100396635D01*
X147305738Y-100386783D01*
X147292944Y-100366027D01*
X147286260Y-100353159D01*
X147279397Y-100337186D01*
X147276640Y-100330768D01*
X147272894Y-100326207D01*
X147269366Y-100322679D01*
X147257043Y-100307088D01*
X147255701Y-100305608D01*
X147250906Y-100297829D01*
X147229568Y-100281603D01*
X147219498Y-100272811D01*
X146962977Y-100016290D01*
X146960685Y-100013635D01*
X146958602Y-100009373D01*
X146924844Y-99978058D01*
X146922168Y-99975481D01*
X146909406Y-99962719D01*
X146905887Y-99960305D01*
X146902531Y-99957358D01*
X146888695Y-99944524D01*
X146888692Y-99944522D01*
X146881993Y-99938308D01*
X146873506Y-99934922D01*
X146873504Y-99934921D01*
X146872690Y-99934596D01*
X146853380Y-99924285D01*
X146852664Y-99923794D01*
X146845122Y-99918620D01*
X146821393Y-99912989D01*
X146807577Y-99908619D01*
X146791432Y-99902178D01*
X146791433Y-99902178D01*
X146784938Y-99899587D01*
X146779064Y-99899011D01*
X146774074Y-99899011D01*
X146754332Y-99896701D01*
X146752345Y-99896604D01*
X146743450Y-99894493D01*
X146716895Y-99898107D01*
X146703545Y-99899011D01*
X146686706Y-99899011D01*
X146628515Y-99880104D01*
X146616702Y-99870015D01*
X146559496Y-99812809D01*
X146531719Y-99758292D01*
X146530500Y-99742805D01*
X146530500Y-95007195D01*
X146549407Y-94949004D01*
X146559496Y-94937191D01*
X147313221Y-94183466D01*
X147315876Y-94181174D01*
X147320138Y-94179091D01*
X147351453Y-94145333D01*
X147354030Y-94142657D01*
X147366792Y-94129895D01*
X147369212Y-94126366D01*
X147372147Y-94123024D01*
X147391203Y-94102482D01*
X147394914Y-94093181D01*
X147405224Y-94073871D01*
X147410890Y-94065611D01*
X147413000Y-94056719D01*
X147413002Y-94056715D01*
X147416520Y-94041892D01*
X147420891Y-94028071D01*
X147427335Y-94011917D01*
X147427335Y-94011916D01*
X147429924Y-94005427D01*
X147430500Y-93999553D01*
X147430500Y-93994564D01*
X147432810Y-93974822D01*
X147432907Y-93972833D01*
X147435018Y-93963939D01*
X147431404Y-93937383D01*
X147430500Y-93924034D01*
X147430500Y-93249989D01*
X147449407Y-93191798D01*
X147498907Y-93155834D01*
X147529500Y-93150989D01*
X148582847Y-93150989D01*
X148641038Y-93169896D01*
X148652851Y-93179985D01*
X148775315Y-93302449D01*
X148803092Y-93356966D01*
X148803132Y-93387681D01*
X148794391Y-93443823D01*
X148795306Y-93450820D01*
X148795306Y-93450821D01*
X148812065Y-93578982D01*
X148812980Y-93585979D01*
X148815821Y-93592435D01*
X148815821Y-93592436D01*
X148865175Y-93704600D01*
X148870720Y-93717203D01*
X148916845Y-93772076D01*
X148958431Y-93821549D01*
X148958434Y-93821551D01*
X148962970Y-93826948D01*
X148968841Y-93830856D01*
X148968842Y-93830857D01*
X148976537Y-93835979D01*
X149082313Y-93906390D01*
X149160258Y-93930741D01*
X149212425Y-93947039D01*
X149212426Y-93947039D01*
X149219157Y-93949142D01*
X149290828Y-93950456D01*
X149355445Y-93951641D01*
X149355447Y-93951641D01*
X149362499Y-93951770D01*
X149369302Y-93949915D01*
X149369304Y-93949915D01*
X149464233Y-93924034D01*
X149500817Y-93914060D01*
X149622991Y-93839045D01*
X149630403Y-93830857D01*
X149714468Y-93737982D01*
X149719200Y-93732754D01*
X149781710Y-93603733D01*
X149784877Y-93584912D01*
X149804862Y-93466124D01*
X149804862Y-93466120D01*
X149805496Y-93462354D01*
X149805647Y-93450000D01*
X149785323Y-93308082D01*
X149725984Y-93177572D01*
X149632400Y-93068963D01*
X149512095Y-92990985D01*
X149374739Y-92949907D01*
X149341340Y-92949703D01*
X149255825Y-92949180D01*
X149197751Y-92929917D01*
X149186426Y-92920186D01*
X148973508Y-92707268D01*
X148971216Y-92704613D01*
X148969133Y-92700351D01*
X148935375Y-92669036D01*
X148932699Y-92666459D01*
X148919937Y-92653697D01*
X148916418Y-92651283D01*
X148913062Y-92648336D01*
X148899226Y-92635502D01*
X148899223Y-92635500D01*
X148892524Y-92629286D01*
X148884037Y-92625900D01*
X148884035Y-92625899D01*
X148883221Y-92625574D01*
X148863911Y-92615263D01*
X148863195Y-92614772D01*
X148855653Y-92609598D01*
X148831924Y-92603967D01*
X148818108Y-92599597D01*
X148801963Y-92593156D01*
X148801964Y-92593156D01*
X148795469Y-92590565D01*
X148789595Y-92589989D01*
X148784605Y-92589989D01*
X148764863Y-92587679D01*
X148762876Y-92587582D01*
X148753981Y-92585471D01*
X148727426Y-92589085D01*
X148714076Y-92589989D01*
X147352684Y-92589989D01*
X147294493Y-92571082D01*
X147282680Y-92560993D01*
X147105814Y-92384127D01*
X147078037Y-92329610D01*
X147076818Y-92314123D01*
X147076818Y-92293823D01*
X151644391Y-92293823D01*
X151645306Y-92300820D01*
X151645306Y-92300821D01*
X151647307Y-92316124D01*
X151662980Y-92435979D01*
X151665821Y-92442435D01*
X151665821Y-92442436D01*
X151673586Y-92460082D01*
X151720720Y-92567203D01*
X151740358Y-92590565D01*
X151776283Y-92633303D01*
X151799253Y-92690013D01*
X151799500Y-92697005D01*
X151799500Y-93602052D01*
X151797282Y-93622888D01*
X151795049Y-93633261D01*
X151796011Y-93641386D01*
X151798814Y-93665071D01*
X151799161Y-93670963D01*
X151799164Y-93670963D01*
X151799500Y-93675030D01*
X151799500Y-93679115D01*
X151800170Y-93683141D01*
X151800171Y-93683152D01*
X151802496Y-93697119D01*
X151803152Y-93701726D01*
X151804220Y-93710747D01*
X151807550Y-93738877D01*
X151808764Y-93749138D01*
X151812118Y-93756122D01*
X151812539Y-93757454D01*
X151813812Y-93765103D01*
X151836505Y-93807160D01*
X151838605Y-93811283D01*
X151856580Y-93848717D01*
X151856582Y-93848721D01*
X151859274Y-93854326D01*
X151862592Y-93858274D01*
X151864100Y-93859782D01*
X151865282Y-93861071D01*
X151866148Y-93862097D01*
X151869222Y-93867794D01*
X151875229Y-93873347D01*
X151906020Y-93901810D01*
X151908822Y-93904504D01*
X152758733Y-94754414D01*
X152771898Y-94770716D01*
X152777655Y-94779632D01*
X152784084Y-94784700D01*
X152802808Y-94799461D01*
X152807217Y-94803378D01*
X152807218Y-94803377D01*
X152810347Y-94806028D01*
X152813227Y-94808908D01*
X152816545Y-94811279D01*
X152816546Y-94811280D01*
X152828064Y-94819511D01*
X152831793Y-94822311D01*
X152869291Y-94851872D01*
X152876596Y-94854437D01*
X152877846Y-94855087D01*
X152884149Y-94859591D01*
X152915938Y-94869098D01*
X152929895Y-94873272D01*
X152934331Y-94874713D01*
X152973513Y-94888473D01*
X152973516Y-94888474D01*
X152979386Y-94890535D01*
X152984524Y-94890980D01*
X152986662Y-94890980D01*
X152988381Y-94891054D01*
X152989742Y-94891169D01*
X152995944Y-94893024D01*
X153004115Y-94892703D01*
X153046034Y-94891056D01*
X153049921Y-94890980D01*
X153497085Y-94890980D01*
X153555276Y-94909887D01*
X153559488Y-94913286D01*
X153562970Y-94917428D01*
X153568841Y-94921336D01*
X153568842Y-94921337D01*
X153581143Y-94929525D01*
X153682313Y-94996870D01*
X153782920Y-95028301D01*
X153812425Y-95037519D01*
X153812426Y-95037519D01*
X153819157Y-95039622D01*
X153890828Y-95040936D01*
X153955445Y-95042121D01*
X153955447Y-95042121D01*
X153962499Y-95042250D01*
X153969302Y-95040395D01*
X153969304Y-95040395D01*
X154044503Y-95019893D01*
X154100817Y-95004540D01*
X154222991Y-94929525D01*
X154230403Y-94921337D01*
X154314468Y-94828462D01*
X154319200Y-94823234D01*
X154381710Y-94694213D01*
X154385374Y-94672439D01*
X154404862Y-94556604D01*
X154404862Y-94556600D01*
X154405496Y-94552834D01*
X154405647Y-94540480D01*
X154385323Y-94398562D01*
X154363010Y-94349486D01*
X154328905Y-94274476D01*
X154328904Y-94274475D01*
X154325984Y-94268052D01*
X154242421Y-94171073D01*
X154237005Y-94164787D01*
X154237004Y-94164786D01*
X154232400Y-94159443D01*
X154112095Y-94081465D01*
X153974739Y-94040387D01*
X153891497Y-94039878D01*
X153838427Y-94039554D01*
X153838426Y-94039554D01*
X153831376Y-94039511D01*
X153824599Y-94041448D01*
X153824598Y-94041448D01*
X153700309Y-94076970D01*
X153700307Y-94076971D01*
X153693529Y-94078908D01*
X153572280Y-94155410D01*
X153567611Y-94160697D01*
X153562241Y-94165267D01*
X153560313Y-94163002D01*
X153518614Y-94187614D01*
X153497101Y-94189980D01*
X153226670Y-94189980D01*
X153168479Y-94171073D01*
X153156666Y-94160984D01*
X152529496Y-93533814D01*
X152501719Y-93479297D01*
X152500500Y-93463810D01*
X152500500Y-92696804D01*
X152519407Y-92638613D01*
X152526102Y-92630368D01*
X152527082Y-92629286D01*
X152562651Y-92589989D01*
X152564468Y-92587982D01*
X152564468Y-92587981D01*
X152569200Y-92582754D01*
X152631710Y-92453733D01*
X152635875Y-92428982D01*
X152654862Y-92316124D01*
X152654862Y-92316120D01*
X152655496Y-92312354D01*
X152655647Y-92300000D01*
X152635323Y-92158082D01*
X152575984Y-92027572D01*
X152482400Y-91918963D01*
X152362095Y-91840985D01*
X152224739Y-91799907D01*
X152141497Y-91799398D01*
X152088427Y-91799074D01*
X152088426Y-91799074D01*
X152081376Y-91799031D01*
X152074599Y-91800968D01*
X152074598Y-91800968D01*
X151950309Y-91836490D01*
X151950307Y-91836491D01*
X151943529Y-91838428D01*
X151822280Y-91914930D01*
X151817613Y-91920214D01*
X151817611Y-91920216D01*
X151732044Y-92017103D01*
X151732042Y-92017105D01*
X151727377Y-92022388D01*
X151666447Y-92152163D01*
X151665362Y-92159132D01*
X151665361Y-92159135D01*
X151650680Y-92253430D01*
X151644391Y-92293823D01*
X147076818Y-92293823D01*
X147076818Y-89919503D01*
X147095725Y-89861312D01*
X147112579Y-89843334D01*
X147113304Y-89842732D01*
X147119309Y-89839045D01*
X147124037Y-89833822D01*
X147124039Y-89833820D01*
X147210786Y-89737982D01*
X147215518Y-89732754D01*
X147258769Y-89643484D01*
X147274952Y-89610082D01*
X147278028Y-89603733D01*
X147280149Y-89591131D01*
X147301180Y-89466124D01*
X147301180Y-89466120D01*
X147301814Y-89462354D01*
X147301965Y-89450000D01*
X147281641Y-89308082D01*
X147222302Y-89177572D01*
X147143380Y-89085979D01*
X147133323Y-89074307D01*
X147133322Y-89074306D01*
X147128718Y-89068963D01*
X147008413Y-88990985D01*
X146871057Y-88949907D01*
X146787815Y-88949398D01*
X146734745Y-88949074D01*
X146734744Y-88949074D01*
X146727694Y-88949031D01*
X146720917Y-88950968D01*
X146720916Y-88950968D01*
X146596627Y-88986490D01*
X146596625Y-88986491D01*
X146589847Y-88988428D01*
X146468598Y-89064930D01*
X146441254Y-89095892D01*
X146388563Y-89126991D01*
X146327654Y-89121179D01*
X146297047Y-89100360D01*
X146277698Y-89081011D01*
X146249921Y-89026494D01*
X146250074Y-88994582D01*
X146254862Y-88966124D01*
X146254862Y-88966120D01*
X146255496Y-88962354D01*
X146255647Y-88950000D01*
X146235323Y-88808082D01*
X146184938Y-88697265D01*
X146178905Y-88683996D01*
X146178904Y-88683995D01*
X146175984Y-88677572D01*
X146106711Y-88597177D01*
X146087005Y-88574307D01*
X146087004Y-88574306D01*
X146082400Y-88568963D01*
X145962095Y-88490985D01*
X145824739Y-88449907D01*
X145681376Y-88449031D01*
X145681386Y-88447367D01*
X145629597Y-88438045D01*
X145587251Y-88393880D01*
X145578952Y-88333260D01*
X145601444Y-88286110D01*
X145602414Y-88284987D01*
X145642564Y-88238472D01*
X145661231Y-88205613D01*
X145741934Y-88063550D01*
X145741935Y-88063547D01*
X145744323Y-88059344D01*
X145753432Y-88031963D01*
X145771299Y-87978251D01*
X145807608Y-87929003D01*
X145865238Y-87910500D01*
X146152805Y-87910500D01*
X146210996Y-87929407D01*
X146222809Y-87939496D01*
X146496534Y-88213221D01*
X146498826Y-88215876D01*
X146500909Y-88220138D01*
X146533249Y-88250138D01*
X146534667Y-88251453D01*
X146537343Y-88254030D01*
X146550105Y-88266792D01*
X146553624Y-88269206D01*
X146556980Y-88272153D01*
X146570816Y-88284987D01*
X146570819Y-88284989D01*
X146577518Y-88291203D01*
X146586005Y-88294589D01*
X146586007Y-88294590D01*
X146586821Y-88294915D01*
X146606131Y-88305226D01*
X146614389Y-88310891D01*
X146623283Y-88313002D01*
X146623284Y-88313002D01*
X146638113Y-88316521D01*
X146651939Y-88320894D01*
X146674573Y-88329924D01*
X146680447Y-88330500D01*
X146685431Y-88330500D01*
X146705186Y-88332812D01*
X146707170Y-88332909D01*
X146716061Y-88335019D01*
X146742622Y-88331404D01*
X146755973Y-88330500D01*
X147400326Y-88330500D01*
X147403826Y-88330757D01*
X147408314Y-88332298D01*
X147417449Y-88331955D01*
X147454333Y-88330570D01*
X147458048Y-88330500D01*
X147476090Y-88330500D01*
X147480296Y-88329716D01*
X147484739Y-88329428D01*
X147503600Y-88328720D01*
X147512735Y-88328377D01*
X147521934Y-88324425D01*
X147542876Y-88318062D01*
X147552728Y-88316227D01*
X147573484Y-88303433D01*
X147586352Y-88296749D01*
X147608743Y-88287129D01*
X147613304Y-88283383D01*
X147616832Y-88279855D01*
X147632423Y-88267532D01*
X147633903Y-88266190D01*
X147641682Y-88261395D01*
X147657908Y-88240057D01*
X147666700Y-88229987D01*
X148073221Y-87823466D01*
X148075876Y-87821174D01*
X148080138Y-87819091D01*
X148111453Y-87785333D01*
X148114030Y-87782657D01*
X148126792Y-87769895D01*
X148129212Y-87766366D01*
X148132147Y-87763024D01*
X148151203Y-87742482D01*
X148154914Y-87733181D01*
X148165224Y-87713871D01*
X148170890Y-87705611D01*
X148173000Y-87696719D01*
X148173002Y-87696715D01*
X148176520Y-87681892D01*
X148180891Y-87668071D01*
X148187335Y-87651917D01*
X148187335Y-87651916D01*
X148189924Y-87645427D01*
X148190500Y-87639553D01*
X148190500Y-87634564D01*
X148192810Y-87614822D01*
X148192907Y-87612833D01*
X148195018Y-87603939D01*
X148191404Y-87577383D01*
X148190500Y-87564034D01*
X148190500Y-86747195D01*
X148209407Y-86689004D01*
X148219496Y-86677191D01*
X149177191Y-85719496D01*
X149231708Y-85691719D01*
X149247195Y-85690500D01*
X149918499Y-85690500D01*
X149976690Y-85709407D01*
X150012654Y-85758907D01*
X150012654Y-85820093D01*
X149992704Y-85855033D01*
X149982044Y-85867103D01*
X149982042Y-85867105D01*
X149977377Y-85872388D01*
X149916447Y-86002163D01*
X149915362Y-86009132D01*
X149915361Y-86009135D01*
X149905212Y-86074320D01*
X149894391Y-86143823D01*
X149895306Y-86150820D01*
X149895306Y-86150821D01*
X149896437Y-86159470D01*
X149912980Y-86285979D01*
X149915821Y-86292435D01*
X149915821Y-86292436D01*
X149948898Y-86367608D01*
X149970720Y-86417203D01*
X150002956Y-86455552D01*
X150058431Y-86521549D01*
X150058434Y-86521551D01*
X150062970Y-86526948D01*
X150068841Y-86530856D01*
X150068842Y-86530857D01*
X150081143Y-86539045D01*
X150182313Y-86606390D01*
X150282920Y-86637821D01*
X150312425Y-86647039D01*
X150312426Y-86647039D01*
X150319157Y-86649142D01*
X150390828Y-86650456D01*
X150455445Y-86651641D01*
X150455447Y-86651641D01*
X150462499Y-86651770D01*
X150469302Y-86649915D01*
X150469304Y-86649915D01*
X150544503Y-86629413D01*
X150600817Y-86614060D01*
X150722991Y-86539045D01*
X150730403Y-86530857D01*
X150814468Y-86437982D01*
X150819200Y-86432754D01*
X150881710Y-86303733D01*
X150884089Y-86289596D01*
X150904862Y-86166124D01*
X150904862Y-86166120D01*
X150905496Y-86162354D01*
X150905647Y-86150000D01*
X150904981Y-86145351D01*
X150892755Y-86059974D01*
X150903222Y-85999691D01*
X150920751Y-85975936D01*
X151247191Y-85649496D01*
X151301708Y-85621719D01*
X151317195Y-85620500D01*
X151602805Y-85620500D01*
X151660996Y-85639407D01*
G37*
%TD.AperFunction*%
%TA.AperFunction,Conductor*%
G36*
X160001856Y-76352436D02*
G01*
X160007411Y-76352436D01*
X160020000Y-76355809D01*
X160032589Y-76352436D01*
X160037808Y-76352436D01*
X160046434Y-76352813D01*
X160128276Y-76359973D01*
X160205768Y-76366753D01*
X160222762Y-76369749D01*
X160394528Y-76415773D01*
X160410745Y-76421676D01*
X160571901Y-76496825D01*
X160586845Y-76505453D01*
X160732503Y-76607443D01*
X160745723Y-76618535D01*
X160871465Y-76744277D01*
X160882557Y-76757497D01*
X160984547Y-76903155D01*
X160993175Y-76918099D01*
X161068324Y-77079255D01*
X161074227Y-77095472D01*
X161120251Y-77267238D01*
X161123247Y-77284232D01*
X161137187Y-77443563D01*
X161137564Y-77452192D01*
X161137564Y-77457411D01*
X161134191Y-77470000D01*
X161137564Y-77482589D01*
X161137564Y-77488144D01*
X161139500Y-77502847D01*
X161139500Y-79480688D01*
X161120593Y-79538879D01*
X161071093Y-79574843D01*
X161009907Y-79574843D01*
X160960407Y-79538879D01*
X160953088Y-79527165D01*
X160901492Y-79430126D01*
X160899218Y-79425849D01*
X160769011Y-79266200D01*
X160610275Y-79134882D01*
X160429055Y-79036897D01*
X160365855Y-79017333D01*
X160236875Y-78977407D01*
X160236871Y-78977406D01*
X160232254Y-78975977D01*
X160227446Y-78975472D01*
X160227443Y-78975471D01*
X160032185Y-78954949D01*
X160032183Y-78954949D01*
X160027369Y-78954443D01*
X159967354Y-78959905D01*
X159827022Y-78972675D01*
X159827017Y-78972676D01*
X159822203Y-78973114D01*
X159624572Y-79031280D01*
X159620288Y-79033519D01*
X159620287Y-79033520D01*
X159609428Y-79039197D01*
X159442002Y-79126726D01*
X159438231Y-79129758D01*
X159285220Y-79252781D01*
X159285217Y-79252783D01*
X159281447Y-79255815D01*
X159278333Y-79259526D01*
X159278332Y-79259527D01*
X159269585Y-79269952D01*
X159149024Y-79413630D01*
X159146689Y-79417878D01*
X159146688Y-79417879D01*
X159139955Y-79430126D01*
X159049776Y-79594162D01*
X158987484Y-79790532D01*
X158986944Y-79795344D01*
X158986944Y-79795345D01*
X158985865Y-79804970D01*
X158964520Y-79995262D01*
X158981759Y-80200553D01*
X159038544Y-80398586D01*
X159132712Y-80581818D01*
X159260677Y-80743270D01*
X159264357Y-80746402D01*
X159264359Y-80746404D01*
X159377017Y-80842283D01*
X159417564Y-80876791D01*
X159421787Y-80879151D01*
X159421791Y-80879154D01*
X159461342Y-80901258D01*
X159597398Y-80977297D01*
X159601996Y-80978791D01*
X159788724Y-81039463D01*
X159788726Y-81039464D01*
X159793329Y-81040959D01*
X159997894Y-81065351D01*
X160002716Y-81064980D01*
X160002719Y-81064980D01*
X160070541Y-81059761D01*
X160203300Y-81049546D01*
X160401725Y-80994145D01*
X160406038Y-80991966D01*
X160406044Y-80991964D01*
X160581289Y-80903441D01*
X160581291Y-80903440D01*
X160585610Y-80901258D01*
X160620943Y-80873653D01*
X160744135Y-80777406D01*
X160744139Y-80777402D01*
X160747951Y-80774424D01*
X160882564Y-80618472D01*
X160903387Y-80581818D01*
X160954420Y-80491983D01*
X160999603Y-80450725D01*
X161060407Y-80443905D01*
X161113607Y-80474127D01*
X161138883Y-80529848D01*
X161139500Y-80540883D01*
X161139500Y-81679935D01*
X161120593Y-81738126D01*
X161071093Y-81774090D01*
X161009907Y-81774090D01*
X160960407Y-81738126D01*
X160952291Y-81724881D01*
X160950274Y-81720922D01*
X160941230Y-81708474D01*
X160861526Y-81628770D01*
X160849081Y-81619728D01*
X160748652Y-81568557D01*
X160734017Y-81563802D01*
X160650718Y-81550609D01*
X160642979Y-81550000D01*
X160235680Y-81550000D01*
X160222995Y-81554122D01*
X160220000Y-81558243D01*
X160220000Y-83534320D01*
X160224122Y-83547005D01*
X160228243Y-83550000D01*
X160642979Y-83550000D01*
X160650718Y-83549391D01*
X160734017Y-83536198D01*
X160748652Y-83531443D01*
X160849081Y-83480272D01*
X160861526Y-83471230D01*
X160941230Y-83391526D01*
X160950274Y-83379078D01*
X160952291Y-83375119D01*
X160995556Y-83331855D01*
X161055988Y-83322284D01*
X161110504Y-83350062D01*
X161138281Y-83404579D01*
X161139500Y-83420065D01*
X161139500Y-84560688D01*
X161120593Y-84618879D01*
X161071093Y-84654843D01*
X161009907Y-84654843D01*
X160960407Y-84618879D01*
X160953088Y-84607165D01*
X160950220Y-84601770D01*
X160899218Y-84505849D01*
X160769011Y-84346200D01*
X160734580Y-84317716D01*
X160614002Y-84217965D01*
X160614000Y-84217964D01*
X160610275Y-84214882D01*
X160498123Y-84154242D01*
X160433309Y-84119197D01*
X160433308Y-84119197D01*
X160429055Y-84116897D01*
X160342165Y-84090000D01*
X160236875Y-84057407D01*
X160236871Y-84057406D01*
X160232254Y-84055977D01*
X160227446Y-84055472D01*
X160227443Y-84055471D01*
X160032185Y-84034949D01*
X160032183Y-84034949D01*
X160027369Y-84034443D01*
X159967354Y-84039905D01*
X159827022Y-84052675D01*
X159827017Y-84052676D01*
X159822203Y-84053114D01*
X159624572Y-84111280D01*
X159620288Y-84113519D01*
X159620287Y-84113520D01*
X159609428Y-84119197D01*
X159442002Y-84206726D01*
X159431858Y-84214882D01*
X159285220Y-84332781D01*
X159285217Y-84332783D01*
X159281447Y-84335815D01*
X159278333Y-84339526D01*
X159278332Y-84339527D01*
X159157261Y-84483814D01*
X159149024Y-84493630D01*
X159146689Y-84497878D01*
X159146688Y-84497879D01*
X159139955Y-84510126D01*
X159049776Y-84674162D01*
X159048313Y-84678775D01*
X159048311Y-84678779D01*
X158994413Y-84848689D01*
X158987484Y-84870532D01*
X158986944Y-84875344D01*
X158986944Y-84875345D01*
X158965607Y-85065573D01*
X158964520Y-85075262D01*
X158969069Y-85129430D01*
X158981278Y-85274822D01*
X158981759Y-85280553D01*
X158983092Y-85285201D01*
X158983092Y-85285202D01*
X159022739Y-85423466D01*
X159038544Y-85478586D01*
X159132712Y-85661818D01*
X159172172Y-85711605D01*
X159209664Y-85758907D01*
X159260677Y-85823270D01*
X159264358Y-85826403D01*
X159264365Y-85826410D01*
X159334663Y-85886237D01*
X159366724Y-85938350D01*
X159369500Y-85961630D01*
X159369500Y-86118462D01*
X159350593Y-86176653D01*
X159340504Y-86188466D01*
X158336779Y-87192191D01*
X158334124Y-87194483D01*
X158329862Y-87196566D01*
X158304899Y-87223476D01*
X158298547Y-87230324D01*
X158295970Y-87233000D01*
X158283208Y-87245762D01*
X158280794Y-87249281D01*
X158277847Y-87252637D01*
X158265013Y-87266473D01*
X158265011Y-87266476D01*
X158258797Y-87273175D01*
X158255411Y-87281662D01*
X158255410Y-87281664D01*
X158255085Y-87282478D01*
X158244774Y-87301788D01*
X158239109Y-87310046D01*
X158233478Y-87333775D01*
X158229108Y-87347591D01*
X158228303Y-87349609D01*
X158220076Y-87370230D01*
X158219500Y-87376104D01*
X158219500Y-87381094D01*
X158217190Y-87400836D01*
X158217093Y-87402823D01*
X158214982Y-87411718D01*
X158217852Y-87432805D01*
X158218596Y-87438273D01*
X158219500Y-87451623D01*
X158219500Y-91233805D01*
X158200593Y-91291996D01*
X158151093Y-91327960D01*
X158089907Y-91327960D01*
X158050496Y-91303809D01*
X157583466Y-90836779D01*
X157581174Y-90834124D01*
X157579091Y-90829862D01*
X157545333Y-90798547D01*
X157542657Y-90795970D01*
X157529895Y-90783208D01*
X157526376Y-90780794D01*
X157523020Y-90777847D01*
X157502484Y-90758798D01*
X157502893Y-90758357D01*
X157479781Y-90735366D01*
X157478905Y-90733996D01*
X157475984Y-90727572D01*
X157403051Y-90642929D01*
X157387005Y-90624307D01*
X157387004Y-90624306D01*
X157382400Y-90618963D01*
X157280087Y-90552647D01*
X157241541Y-90505131D01*
X157238285Y-90444032D01*
X157250253Y-90416671D01*
X157254986Y-90409184D01*
X157261203Y-90402482D01*
X157264591Y-90393990D01*
X157264915Y-90393179D01*
X157275226Y-90373869D01*
X157275718Y-90373151D01*
X157280891Y-90365611D01*
X157286521Y-90341887D01*
X157290894Y-90328061D01*
X157297333Y-90311921D01*
X157299924Y-90305427D01*
X157300500Y-90299553D01*
X157300500Y-90294569D01*
X157302812Y-90274814D01*
X157302909Y-90272830D01*
X157305019Y-90263939D01*
X157301404Y-90237378D01*
X157300500Y-90224027D01*
X157300500Y-88809669D01*
X157300757Y-88806172D01*
X157302297Y-88801686D01*
X157300570Y-88755681D01*
X157300500Y-88751968D01*
X157300500Y-88733910D01*
X157299715Y-88729697D01*
X157299427Y-88725244D01*
X157298720Y-88706399D01*
X157298720Y-88706398D01*
X157298377Y-88697265D01*
X157294425Y-88688066D01*
X157288062Y-88667124D01*
X157286227Y-88657272D01*
X157273431Y-88636514D01*
X157266750Y-88623650D01*
X157259889Y-88607679D01*
X157259887Y-88607676D01*
X157257129Y-88601256D01*
X157253383Y-88596696D01*
X157249855Y-88593168D01*
X157237532Y-88577577D01*
X157236190Y-88576097D01*
X157231395Y-88568318D01*
X157210057Y-88552092D01*
X157199987Y-88543300D01*
X156573466Y-87916779D01*
X156571174Y-87914124D01*
X156569091Y-87909862D01*
X156535333Y-87878547D01*
X156532657Y-87875970D01*
X156519895Y-87863208D01*
X156516376Y-87860794D01*
X156513020Y-87857847D01*
X156499184Y-87845013D01*
X156499181Y-87845011D01*
X156492482Y-87838797D01*
X156483995Y-87835411D01*
X156483993Y-87835410D01*
X156483179Y-87835085D01*
X156463869Y-87824774D01*
X156463153Y-87824283D01*
X156455611Y-87819109D01*
X156431882Y-87813478D01*
X156418066Y-87809108D01*
X156401921Y-87802667D01*
X156401922Y-87802667D01*
X156395427Y-87800076D01*
X156389553Y-87799500D01*
X156384563Y-87799500D01*
X156364821Y-87797190D01*
X156362834Y-87797093D01*
X156353939Y-87794982D01*
X156327384Y-87798596D01*
X156314034Y-87799500D01*
X154207195Y-87799500D01*
X154149004Y-87780593D01*
X154137191Y-87770504D01*
X154099496Y-87732809D01*
X154071719Y-87678292D01*
X154070500Y-87662805D01*
X154070500Y-85807195D01*
X154089407Y-85749004D01*
X154099496Y-85737191D01*
X154413221Y-85423466D01*
X154415876Y-85421174D01*
X154420138Y-85419091D01*
X154451453Y-85385333D01*
X154454030Y-85382657D01*
X154466792Y-85369895D01*
X154469212Y-85366366D01*
X154472147Y-85363024D01*
X154491203Y-85342482D01*
X154494914Y-85333181D01*
X154505224Y-85313871D01*
X154510890Y-85305611D01*
X154513000Y-85296719D01*
X154513002Y-85296715D01*
X154516520Y-85281892D01*
X154520891Y-85268071D01*
X154527335Y-85251917D01*
X154527335Y-85251916D01*
X154529924Y-85245427D01*
X154530500Y-85239553D01*
X154530500Y-85234564D01*
X154532810Y-85214822D01*
X154532907Y-85212833D01*
X154535018Y-85203939D01*
X154531404Y-85177383D01*
X154530500Y-85164034D01*
X154530500Y-84659230D01*
X154549407Y-84601039D01*
X154598907Y-84565075D01*
X154659021Y-84564734D01*
X154722115Y-84584445D01*
X154762425Y-84597039D01*
X154762426Y-84597039D01*
X154769157Y-84599142D01*
X154840828Y-84600456D01*
X154905445Y-84601641D01*
X154905447Y-84601641D01*
X154912499Y-84601770D01*
X154919302Y-84599915D01*
X154919304Y-84599915D01*
X155014688Y-84573910D01*
X155050817Y-84564060D01*
X155172991Y-84489045D01*
X155180403Y-84480857D01*
X155264468Y-84387982D01*
X155269200Y-84382754D01*
X155331710Y-84253733D01*
X155333670Y-84242088D01*
X155354862Y-84116124D01*
X155354862Y-84116120D01*
X155355496Y-84112354D01*
X155355647Y-84100000D01*
X155335323Y-83958082D01*
X155275984Y-83827572D01*
X155182400Y-83718963D01*
X155062095Y-83640985D01*
X154936654Y-83603470D01*
X154895020Y-83578628D01*
X154885894Y-83569502D01*
X154858118Y-83514987D01*
X154867689Y-83454555D01*
X154910954Y-83411290D01*
X154955899Y-83400500D01*
X157254433Y-83400500D01*
X157277380Y-83393044D01*
X157292481Y-83389419D01*
X157308609Y-83386865D01*
X157308611Y-83386864D01*
X157316304Y-83385646D01*
X157337797Y-83374695D01*
X157352143Y-83368752D01*
X157367679Y-83363704D01*
X157375090Y-83361296D01*
X157394607Y-83347116D01*
X157407846Y-83339002D01*
X157429342Y-83328050D01*
X157451905Y-83305487D01*
X157451909Y-83305484D01*
X157451916Y-83305477D01*
X157451932Y-83305462D01*
X157584415Y-83172979D01*
X159020000Y-83172979D01*
X159020609Y-83180718D01*
X159033802Y-83264017D01*
X159038557Y-83278652D01*
X159089728Y-83379081D01*
X159098770Y-83391526D01*
X159178474Y-83471230D01*
X159190919Y-83480272D01*
X159291348Y-83531443D01*
X159305983Y-83536198D01*
X159389282Y-83549391D01*
X159397021Y-83550000D01*
X159804320Y-83550000D01*
X159817005Y-83545878D01*
X159820000Y-83541757D01*
X159820000Y-82765680D01*
X159815878Y-82752995D01*
X159811757Y-82750000D01*
X159035680Y-82750000D01*
X159022995Y-82754122D01*
X159020000Y-82758243D01*
X159020000Y-83172979D01*
X157584415Y-83172979D01*
X157927966Y-82829427D01*
X157982483Y-82801649D01*
X157998484Y-82800431D01*
X158059295Y-82800750D01*
X158095140Y-82800938D01*
X158095142Y-82800938D01*
X158101105Y-82800969D01*
X158106901Y-82799577D01*
X158106905Y-82799577D01*
X158214297Y-82773793D01*
X158265968Y-82761388D01*
X158341299Y-82722507D01*
X158411325Y-82686364D01*
X158411327Y-82686362D01*
X158416631Y-82683625D01*
X158544396Y-82572169D01*
X158641887Y-82433453D01*
X158680538Y-82334320D01*
X159020000Y-82334320D01*
X159024122Y-82347005D01*
X159028243Y-82350000D01*
X159804320Y-82350000D01*
X159817005Y-82345878D01*
X159820000Y-82341757D01*
X159820000Y-81565680D01*
X159815878Y-81552995D01*
X159811757Y-81550000D01*
X159397021Y-81550000D01*
X159389282Y-81550609D01*
X159305983Y-81563802D01*
X159291348Y-81568557D01*
X159190919Y-81619728D01*
X159178474Y-81628770D01*
X159098770Y-81708474D01*
X159089728Y-81720919D01*
X159038557Y-81821348D01*
X159033802Y-81835983D01*
X159020609Y-81919282D01*
X159020000Y-81927021D01*
X159020000Y-82334320D01*
X158680538Y-82334320D01*
X158685304Y-82322095D01*
X158701308Y-82281048D01*
X158701308Y-82281047D01*
X158703476Y-82275487D01*
X158706608Y-82251701D01*
X158720077Y-82149387D01*
X158720500Y-82146174D01*
X158720500Y-81457484D01*
X158705276Y-81331680D01*
X158645345Y-81173077D01*
X158549312Y-81033349D01*
X158453642Y-80948109D01*
X158422772Y-80895283D01*
X158420500Y-80874193D01*
X158420500Y-78925263D01*
X158439407Y-78867072D01*
X158454420Y-78850660D01*
X158539899Y-78776092D01*
X158544396Y-78772169D01*
X158641887Y-78633453D01*
X158703476Y-78475487D01*
X158720500Y-78346174D01*
X158720500Y-77257484D01*
X158705276Y-77131680D01*
X158645345Y-76973077D01*
X158607560Y-76918099D01*
X158552692Y-76838267D01*
X158549312Y-76833349D01*
X158422721Y-76720560D01*
X158409650Y-76713639D01*
X158353367Y-76683839D01*
X158310630Y-76661211D01*
X158268051Y-76617273D01*
X158257959Y-76574452D01*
X158257039Y-76450233D01*
X158275515Y-76391904D01*
X158324747Y-76355575D01*
X158356036Y-76350500D01*
X159987153Y-76350500D01*
X160001856Y-76352436D01*
G37*
%TD.AperFunction*%
%TA.AperFunction,Conductor*%
G36*
X146459191Y-76369407D02*
G01*
X146495155Y-76418907D01*
X146500000Y-76449500D01*
X146500000Y-76595866D01*
X146481093Y-76654057D01*
X146446408Y-76683838D01*
X146383369Y-76716375D01*
X146255604Y-76827831D01*
X146252173Y-76832713D01*
X146252172Y-76832714D01*
X146197679Y-76910250D01*
X146158113Y-76966547D01*
X146155945Y-76972108D01*
X146114170Y-77079255D01*
X146096524Y-77124513D01*
X146079500Y-77253826D01*
X146079500Y-78342516D01*
X146094724Y-78468320D01*
X146154655Y-78626923D01*
X146250688Y-78766651D01*
X146344977Y-78850660D01*
X146346358Y-78851890D01*
X146377228Y-78904717D01*
X146379500Y-78925807D01*
X146379500Y-80874737D01*
X146360593Y-80932928D01*
X146345580Y-80949340D01*
X146255604Y-81027831D01*
X146252173Y-81032713D01*
X146252172Y-81032714D01*
X146161544Y-81161665D01*
X146158113Y-81166547D01*
X146096524Y-81324513D01*
X146079500Y-81453826D01*
X146079500Y-82142516D01*
X146094724Y-82268320D01*
X146154655Y-82426923D01*
X146158035Y-82431840D01*
X146158036Y-82431843D01*
X146176769Y-82459099D01*
X146250688Y-82566651D01*
X146377279Y-82679440D01*
X146527119Y-82758776D01*
X146607872Y-82779060D01*
X146685769Y-82798627D01*
X146685772Y-82798627D01*
X146691559Y-82800081D01*
X146751015Y-82800393D01*
X146802782Y-82800664D01*
X146860873Y-82819876D01*
X146872266Y-82829659D01*
X147121807Y-83079199D01*
X147391179Y-83348571D01*
X147412677Y-83359525D01*
X147425907Y-83367632D01*
X147445431Y-83381817D01*
X147452836Y-83384223D01*
X147452840Y-83384225D01*
X147468378Y-83389273D01*
X147482724Y-83395216D01*
X147504217Y-83406167D01*
X147511910Y-83407385D01*
X147511912Y-83407386D01*
X147528040Y-83409940D01*
X147543141Y-83413565D01*
X147566088Y-83421021D01*
X149797562Y-83421021D01*
X149855753Y-83439928D01*
X149891717Y-83489428D01*
X149891717Y-83550614D01*
X149855753Y-83600114D01*
X149824767Y-83615210D01*
X149750309Y-83636490D01*
X149750307Y-83636491D01*
X149743529Y-83638428D01*
X149622280Y-83714930D01*
X149617613Y-83720214D01*
X149617611Y-83720216D01*
X149532044Y-83817103D01*
X149532042Y-83817105D01*
X149527377Y-83822388D01*
X149466447Y-83952163D01*
X149465362Y-83959132D01*
X149465361Y-83959135D01*
X149453636Y-84034443D01*
X149444391Y-84093823D01*
X149445306Y-84100820D01*
X149445306Y-84100821D01*
X149446318Y-84108557D01*
X149462980Y-84235979D01*
X149465821Y-84242435D01*
X149465821Y-84242436D01*
X149509716Y-84342194D01*
X149520720Y-84367203D01*
X149532181Y-84380837D01*
X149608431Y-84471549D01*
X149608434Y-84471551D01*
X149612970Y-84476948D01*
X149618841Y-84480856D01*
X149618842Y-84480857D01*
X149631143Y-84489045D01*
X149732313Y-84556390D01*
X149831412Y-84587350D01*
X149862425Y-84597039D01*
X149862426Y-84597039D01*
X149869157Y-84599142D01*
X149940828Y-84600456D01*
X150005445Y-84601641D01*
X150005447Y-84601641D01*
X150012499Y-84601770D01*
X150019302Y-84599915D01*
X150019304Y-84599915D01*
X150114688Y-84573910D01*
X150150817Y-84564060D01*
X150172625Y-84550670D01*
X150182581Y-84544557D01*
X150242064Y-84530221D01*
X150298612Y-84553587D01*
X150330626Y-84605728D01*
X150325879Y-84666729D01*
X150304386Y-84698927D01*
X149902809Y-85100504D01*
X149848292Y-85128281D01*
X149832805Y-85129500D01*
X149139674Y-85129500D01*
X149136174Y-85129243D01*
X149131686Y-85127702D01*
X149122551Y-85128045D01*
X149085667Y-85129430D01*
X149081952Y-85129500D01*
X149063910Y-85129500D01*
X149059704Y-85130284D01*
X149055261Y-85130572D01*
X149036400Y-85131280D01*
X149027265Y-85131623D01*
X149018066Y-85135575D01*
X148997124Y-85141938D01*
X148987272Y-85143773D01*
X148979493Y-85148568D01*
X148966516Y-85156567D01*
X148953649Y-85163250D01*
X148931257Y-85172871D01*
X148926696Y-85176617D01*
X148923168Y-85180145D01*
X148907577Y-85192468D01*
X148906097Y-85193810D01*
X148898318Y-85198605D01*
X148882092Y-85219943D01*
X148873300Y-85230013D01*
X147746779Y-86356534D01*
X147744124Y-86358826D01*
X147739862Y-86360909D01*
X147733647Y-86367608D01*
X147733648Y-86367608D01*
X147708547Y-86394667D01*
X147705970Y-86397343D01*
X147693208Y-86410105D01*
X147690794Y-86413624D01*
X147687847Y-86416980D01*
X147675013Y-86430816D01*
X147675011Y-86430819D01*
X147668797Y-86437518D01*
X147665411Y-86446005D01*
X147665410Y-86446007D01*
X147665085Y-86446821D01*
X147654774Y-86466131D01*
X147649109Y-86474389D01*
X147643478Y-86498118D01*
X147639108Y-86511934D01*
X147630076Y-86534573D01*
X147629500Y-86540447D01*
X147629500Y-86545437D01*
X147627190Y-86565179D01*
X147627093Y-86567166D01*
X147624982Y-86576061D01*
X147627887Y-86597407D01*
X147628596Y-86602616D01*
X147629500Y-86615966D01*
X147629500Y-87432805D01*
X147610593Y-87490996D01*
X147600504Y-87502809D01*
X147362809Y-87740504D01*
X147308292Y-87768281D01*
X147292805Y-87769500D01*
X146887195Y-87769500D01*
X146829004Y-87750593D01*
X146817191Y-87740504D01*
X146543466Y-87466779D01*
X146541174Y-87464124D01*
X146539091Y-87459862D01*
X146505333Y-87428547D01*
X146502657Y-87425970D01*
X146489895Y-87413208D01*
X146486376Y-87410794D01*
X146483020Y-87407847D01*
X146469184Y-87395013D01*
X146469181Y-87395011D01*
X146462482Y-87388797D01*
X146453995Y-87385411D01*
X146453993Y-87385410D01*
X146453179Y-87385085D01*
X146433869Y-87374774D01*
X146433153Y-87374283D01*
X146425611Y-87369109D01*
X146401882Y-87363478D01*
X146388066Y-87359108D01*
X146371921Y-87352667D01*
X146371922Y-87352667D01*
X146365427Y-87350076D01*
X146359553Y-87349500D01*
X146354563Y-87349500D01*
X146334821Y-87347190D01*
X146332834Y-87347093D01*
X146323939Y-87344982D01*
X146297384Y-87348596D01*
X146284034Y-87349500D01*
X145866218Y-87349500D01*
X145808027Y-87330593D01*
X145771443Y-87279114D01*
X145769650Y-87273175D01*
X145755935Y-87227749D01*
X145659218Y-87045849D01*
X145529011Y-86886200D01*
X145370275Y-86754882D01*
X145189055Y-86656897D01*
X145125855Y-86637333D01*
X144996875Y-86597407D01*
X144996871Y-86597406D01*
X144992254Y-86595977D01*
X144987446Y-86595472D01*
X144987443Y-86595471D01*
X144792185Y-86574949D01*
X144792183Y-86574949D01*
X144787369Y-86574443D01*
X144742580Y-86578519D01*
X144587022Y-86592675D01*
X144587017Y-86592676D01*
X144582203Y-86593114D01*
X144384572Y-86651280D01*
X144380288Y-86653519D01*
X144380287Y-86653520D01*
X144369428Y-86659197D01*
X144202002Y-86746726D01*
X144198231Y-86749758D01*
X144045220Y-86872781D01*
X144045217Y-86872783D01*
X144041447Y-86875815D01*
X144038333Y-86879526D01*
X144038332Y-86879527D01*
X144029585Y-86889952D01*
X143909024Y-87033630D01*
X143846254Y-87147809D01*
X143801652Y-87189693D01*
X143740950Y-87197361D01*
X143687332Y-87167885D01*
X143661281Y-87112523D01*
X143660500Y-87100115D01*
X143660500Y-85960065D01*
X143679407Y-85901874D01*
X143728907Y-85865910D01*
X143790093Y-85865910D01*
X143839593Y-85901874D01*
X143847709Y-85915119D01*
X143849726Y-85919078D01*
X143858770Y-85931526D01*
X143938474Y-86011230D01*
X143950919Y-86020272D01*
X144051348Y-86071443D01*
X144065983Y-86076198D01*
X144149282Y-86089391D01*
X144157021Y-86090000D01*
X144564320Y-86090000D01*
X144577005Y-86085878D01*
X144580000Y-86081757D01*
X144580000Y-86074320D01*
X144980000Y-86074320D01*
X144984122Y-86087005D01*
X144988243Y-86090000D01*
X145402979Y-86090000D01*
X145410718Y-86089391D01*
X145494017Y-86076198D01*
X145508652Y-86071443D01*
X145609081Y-86020272D01*
X145621526Y-86011230D01*
X145701230Y-85931526D01*
X145710272Y-85919081D01*
X145761443Y-85818652D01*
X145766198Y-85804017D01*
X145779391Y-85720718D01*
X145780000Y-85712979D01*
X145780000Y-85305680D01*
X145775878Y-85292995D01*
X145771757Y-85290000D01*
X144995680Y-85290000D01*
X144982995Y-85294122D01*
X144980000Y-85298243D01*
X144980000Y-86074320D01*
X144580000Y-86074320D01*
X144580000Y-84874320D01*
X144980000Y-84874320D01*
X144984122Y-84887005D01*
X144988243Y-84890000D01*
X145764320Y-84890000D01*
X145777005Y-84885878D01*
X145780000Y-84881757D01*
X145780000Y-84467021D01*
X145779391Y-84459282D01*
X145766198Y-84375983D01*
X145761443Y-84361348D01*
X145710272Y-84260919D01*
X145701230Y-84248474D01*
X145621526Y-84168770D01*
X145609081Y-84159728D01*
X145508652Y-84108557D01*
X145494017Y-84103802D01*
X145410718Y-84090609D01*
X145402979Y-84090000D01*
X144995680Y-84090000D01*
X144982995Y-84094122D01*
X144980000Y-84098243D01*
X144980000Y-84874320D01*
X144580000Y-84874320D01*
X144580000Y-84105680D01*
X144575878Y-84092995D01*
X144571757Y-84090000D01*
X144157021Y-84090000D01*
X144149282Y-84090609D01*
X144065983Y-84103802D01*
X144051348Y-84108557D01*
X143950919Y-84159728D01*
X143938474Y-84168770D01*
X143858770Y-84248474D01*
X143849726Y-84260922D01*
X143847709Y-84264881D01*
X143804444Y-84308145D01*
X143744012Y-84317716D01*
X143689496Y-84289938D01*
X143661719Y-84235421D01*
X143660500Y-84219935D01*
X143660500Y-83079199D01*
X143679407Y-83021008D01*
X143728907Y-82985044D01*
X143790093Y-82985044D01*
X143839593Y-83021008D01*
X143847552Y-83033946D01*
X143892712Y-83121818D01*
X144020677Y-83283270D01*
X144024357Y-83286402D01*
X144024359Y-83286404D01*
X144106975Y-83356715D01*
X144177564Y-83416791D01*
X144181787Y-83419151D01*
X144181791Y-83419154D01*
X144274971Y-83471230D01*
X144357398Y-83517297D01*
X144361996Y-83518791D01*
X144548724Y-83579463D01*
X144548726Y-83579464D01*
X144553329Y-83580959D01*
X144757894Y-83605351D01*
X144762716Y-83604980D01*
X144762719Y-83604980D01*
X144840030Y-83599031D01*
X144963300Y-83589546D01*
X145161725Y-83534145D01*
X145166038Y-83531966D01*
X145166044Y-83531964D01*
X145341289Y-83443441D01*
X145341291Y-83443440D01*
X145345610Y-83441258D01*
X145349427Y-83438276D01*
X145504135Y-83317406D01*
X145504139Y-83317402D01*
X145507951Y-83314424D01*
X145515666Y-83305487D01*
X145567313Y-83245651D01*
X145642564Y-83158472D01*
X145661231Y-83125613D01*
X145741934Y-82983550D01*
X145741935Y-82983547D01*
X145744323Y-82979344D01*
X145757882Y-82938586D01*
X145807824Y-82788454D01*
X145807824Y-82788452D01*
X145809351Y-82783863D01*
X145813251Y-82752995D01*
X145834823Y-82582228D01*
X145835171Y-82579474D01*
X145835583Y-82550000D01*
X145834138Y-82535262D01*
X145815952Y-82349780D01*
X145815951Y-82349776D01*
X145815480Y-82344970D01*
X145755935Y-82147749D01*
X145659218Y-81965849D01*
X145529011Y-81806200D01*
X145446724Y-81738126D01*
X145374002Y-81677965D01*
X145374000Y-81677964D01*
X145370275Y-81674882D01*
X145189055Y-81576897D01*
X145102165Y-81550000D01*
X144996875Y-81517407D01*
X144996871Y-81517406D01*
X144992254Y-81515977D01*
X144987446Y-81515472D01*
X144987443Y-81515471D01*
X144792185Y-81494949D01*
X144792183Y-81494949D01*
X144787369Y-81494443D01*
X144727354Y-81499905D01*
X144587022Y-81512675D01*
X144587017Y-81512676D01*
X144582203Y-81513114D01*
X144384572Y-81571280D01*
X144380288Y-81573519D01*
X144380287Y-81573520D01*
X144369428Y-81579197D01*
X144202002Y-81666726D01*
X144198231Y-81669758D01*
X144045220Y-81792781D01*
X144045217Y-81792783D01*
X144041447Y-81795815D01*
X144038333Y-81799526D01*
X144038332Y-81799527D01*
X143931352Y-81927021D01*
X143909024Y-81953630D01*
X143846254Y-82067809D01*
X143801652Y-82109693D01*
X143740950Y-82117361D01*
X143687332Y-82087885D01*
X143661281Y-82032523D01*
X143660500Y-82020115D01*
X143660500Y-80539199D01*
X143679407Y-80481008D01*
X143728907Y-80445044D01*
X143790093Y-80445044D01*
X143839593Y-80481008D01*
X143847552Y-80493946D01*
X143892712Y-80581818D01*
X144020677Y-80743270D01*
X144024357Y-80746402D01*
X144024359Y-80746404D01*
X144137017Y-80842283D01*
X144177564Y-80876791D01*
X144181787Y-80879151D01*
X144181791Y-80879154D01*
X144221342Y-80901258D01*
X144357398Y-80977297D01*
X144361996Y-80978791D01*
X144548724Y-81039463D01*
X144548726Y-81039464D01*
X144553329Y-81040959D01*
X144757894Y-81065351D01*
X144762716Y-81064980D01*
X144762719Y-81064980D01*
X144830541Y-81059761D01*
X144963300Y-81049546D01*
X145161725Y-80994145D01*
X145166038Y-80991966D01*
X145166044Y-80991964D01*
X145341289Y-80903441D01*
X145341291Y-80903440D01*
X145345610Y-80901258D01*
X145380943Y-80873653D01*
X145504135Y-80777406D01*
X145504139Y-80777402D01*
X145507951Y-80774424D01*
X145642564Y-80618472D01*
X145661231Y-80585613D01*
X145741934Y-80443550D01*
X145741935Y-80443547D01*
X145744323Y-80439344D01*
X145757882Y-80398586D01*
X145807824Y-80248454D01*
X145807824Y-80248452D01*
X145809351Y-80243863D01*
X145835171Y-80039474D01*
X145835583Y-80010000D01*
X145815480Y-79804970D01*
X145755935Y-79607749D01*
X145659218Y-79425849D01*
X145529011Y-79266200D01*
X145370275Y-79134882D01*
X145189055Y-79036897D01*
X145125855Y-79017333D01*
X144996875Y-78977407D01*
X144996871Y-78977406D01*
X144992254Y-78975977D01*
X144987446Y-78975472D01*
X144987443Y-78975471D01*
X144792185Y-78954949D01*
X144792183Y-78954949D01*
X144787369Y-78954443D01*
X144727354Y-78959905D01*
X144587022Y-78972675D01*
X144587017Y-78972676D01*
X144582203Y-78973114D01*
X144384572Y-79031280D01*
X144380288Y-79033519D01*
X144380287Y-79033520D01*
X144369428Y-79039197D01*
X144202002Y-79126726D01*
X144198231Y-79129758D01*
X144045220Y-79252781D01*
X144045217Y-79252783D01*
X144041447Y-79255815D01*
X144038333Y-79259526D01*
X144038332Y-79259527D01*
X144029585Y-79269952D01*
X143909024Y-79413630D01*
X143846254Y-79527809D01*
X143801652Y-79569693D01*
X143740950Y-79577361D01*
X143687332Y-79547885D01*
X143661281Y-79492523D01*
X143660500Y-79480115D01*
X143660500Y-77502847D01*
X143662436Y-77488144D01*
X143662436Y-77482589D01*
X143665809Y-77470000D01*
X143662436Y-77457411D01*
X143662436Y-77452192D01*
X143662813Y-77443563D01*
X143676753Y-77284232D01*
X143679749Y-77267238D01*
X143725773Y-77095472D01*
X143731676Y-77079255D01*
X143806825Y-76918099D01*
X143815453Y-76903155D01*
X143917443Y-76757497D01*
X143928535Y-76744277D01*
X144054277Y-76618535D01*
X144067497Y-76607443D01*
X144213155Y-76505453D01*
X144228099Y-76496825D01*
X144389255Y-76421676D01*
X144405472Y-76415773D01*
X144577238Y-76369749D01*
X144594232Y-76366753D01*
X144671724Y-76359973D01*
X144753566Y-76352813D01*
X144762192Y-76352436D01*
X144767411Y-76352436D01*
X144780000Y-76355809D01*
X144792589Y-76352436D01*
X144798144Y-76352436D01*
X144812847Y-76350500D01*
X146401000Y-76350500D01*
X146459191Y-76369407D01*
G37*
%TD.AperFunction*%
%TD*%
M02*
