%TF.GenerationSoftware,KiCad,Pcbnew,(6.0.8)*%
%TF.CreationDate,2022-11-23T03:17:44-08:00*%
%TF.ProjectId,0xB2,30784232-2e6b-4696-9361-645f70636258,2*%
%TF.SameCoordinates,Original*%
%TF.FileFunction,Drillmap*%
%TF.FilePolarity,Positive*%
%FSLAX45Y45*%
G04 Gerber Fmt 4.5, Leading zero omitted, Abs format (unit mm)*
G04 Created by KiCad (PCBNEW (6.0.8)) date 2022-11-23 03:17:44*
%MOMM*%
%LPD*%
G01*
G04 APERTURE LIST*
%ADD10C,0.100000*%
%ADD11C,0.200000*%
%ADD12C,0.030000*%
%ADD13C,0.040000*%
%ADD14C,0.060000*%
G04 APERTURE END LIST*
D10*
X14351000Y-10795000D02*
X14351000Y-7747000D01*
X15702000Y-8240000D02*
X15702000Y-7620000D01*
X16002000Y-10922000D02*
G75*
G03*
X16129000Y-10795000I0J127000D01*
G01*
X14778000Y-7620000D02*
X14778000Y-8240000D01*
X14351000Y-10795000D02*
G75*
G03*
X14478000Y-10922000I127000J0D01*
G01*
X15662000Y-8240000D02*
X14818000Y-8240000D01*
X14778000Y-8240000D02*
G75*
G03*
X14818000Y-8240000I20000J0D01*
G01*
X16129000Y-7747000D02*
X16129000Y-10795000D01*
X16002000Y-10922000D02*
X14478000Y-10922000D01*
X14478000Y-7620000D02*
X14778000Y-7620000D01*
X15702000Y-7620000D02*
X16002000Y-7620000D01*
X16129000Y-7747000D02*
G75*
G03*
X16002000Y-7620000I-127000J0D01*
G01*
X14478000Y-7620000D02*
G75*
G03*
X14351000Y-7747000I0J-127000D01*
G01*
X15662000Y-8240000D02*
G75*
G03*
X15702000Y-8240000I20000J0D01*
G01*
D11*
D12*
X14560000Y-8880000D02*
X14590000Y-8910000D01*
X14590000Y-8880000D02*
X14560000Y-8910000D01*
X14610000Y-10400000D02*
X14640000Y-10430000D01*
X14640000Y-10400000D02*
X14610000Y-10430000D01*
X14628950Y-9355000D02*
X14658950Y-9385000D01*
X14658950Y-9355000D02*
X14628950Y-9385000D01*
X14635000Y-10060000D02*
X14665000Y-10090000D01*
X14665000Y-10060000D02*
X14635000Y-10090000D01*
X14664632Y-8930000D02*
X14694632Y-8960000D01*
X14694632Y-8930000D02*
X14664632Y-8960000D01*
X14675000Y-9945000D02*
X14705000Y-9975000D01*
X14705000Y-9945000D02*
X14675000Y-9975000D01*
X14710000Y-8715000D02*
X14740000Y-8745000D01*
X14740000Y-8715000D02*
X14710000Y-8745000D01*
X14745000Y-10085000D02*
X14775000Y-10115000D01*
X14775000Y-10085000D02*
X14745000Y-10115000D01*
X14805000Y-9120000D02*
X14835000Y-9150000D01*
X14835000Y-9120000D02*
X14805000Y-9150000D01*
X14835000Y-9330000D02*
X14865000Y-9360000D01*
X14865000Y-9330000D02*
X14835000Y-9360000D01*
X14840000Y-8715000D02*
X14870000Y-8745000D01*
X14870000Y-8715000D02*
X14840000Y-8745000D01*
X14915000Y-9330000D02*
X14945000Y-9360000D01*
X14945000Y-9330000D02*
X14915000Y-9360000D01*
X14975000Y-9935000D02*
X15005000Y-9965000D01*
X15005000Y-9935000D02*
X14975000Y-9965000D01*
X14980000Y-8395000D02*
X15010000Y-8425000D01*
X15010000Y-8395000D02*
X14980000Y-8425000D01*
X15025000Y-8600000D02*
X15055000Y-8630000D01*
X15055000Y-8600000D02*
X15025000Y-8630000D01*
X15058000Y-8860000D02*
X15088000Y-8890000D01*
X15088000Y-8860000D02*
X15058000Y-8890000D01*
X15095000Y-10600000D02*
X15125000Y-10630000D01*
X15125000Y-10600000D02*
X15095000Y-10630000D01*
X15105000Y-9565000D02*
X15135000Y-9595000D01*
X15135000Y-9565000D02*
X15105000Y-9595000D01*
X15105000Y-9685000D02*
X15135000Y-9715000D01*
X15135000Y-9685000D02*
X15105000Y-9715000D01*
X15105000Y-9805000D02*
X15135000Y-9835000D01*
X15135000Y-9805000D02*
X15105000Y-9835000D01*
X15110000Y-10130000D02*
X15140000Y-10160000D01*
X15140000Y-10130000D02*
X15110000Y-10160000D01*
X15135000Y-9080000D02*
X15165000Y-9110000D01*
X15165000Y-9080000D02*
X15135000Y-9110000D01*
X15183856Y-8445050D02*
X15213856Y-8475050D01*
X15213856Y-8445050D02*
X15183856Y-8475050D01*
X15200000Y-9215000D02*
X15230000Y-9245000D01*
X15230000Y-9215000D02*
X15200000Y-9245000D01*
X15210000Y-10285000D02*
X15240000Y-10315000D01*
X15240000Y-10285000D02*
X15210000Y-10315000D01*
X15225000Y-9565000D02*
X15255000Y-9595000D01*
X15255000Y-9565000D02*
X15225000Y-9595000D01*
X15225000Y-9685000D02*
X15255000Y-9715000D01*
X15255000Y-9685000D02*
X15225000Y-9715000D01*
X15225000Y-9805000D02*
X15255000Y-9835000D01*
X15255000Y-9805000D02*
X15225000Y-9835000D01*
X15255000Y-8490000D02*
X15285000Y-8520000D01*
X15285000Y-8490000D02*
X15255000Y-8520000D01*
X15325000Y-9030000D02*
X15355000Y-9060000D01*
X15355000Y-9030000D02*
X15325000Y-9060000D01*
X15335000Y-8490000D02*
X15365000Y-8520000D01*
X15365000Y-8490000D02*
X15335000Y-8520000D01*
X15345000Y-9565000D02*
X15375000Y-9595000D01*
X15375000Y-9565000D02*
X15345000Y-9595000D01*
X15345000Y-9685000D02*
X15375000Y-9715000D01*
X15375000Y-9685000D02*
X15345000Y-9715000D01*
X15345000Y-9805000D02*
X15375000Y-9835000D01*
X15375000Y-9805000D02*
X15345000Y-9835000D01*
X15355000Y-10150000D02*
X15385000Y-10180000D01*
X15385000Y-10150000D02*
X15355000Y-10180000D01*
X15375000Y-9439048D02*
X15405000Y-9469048D01*
X15405000Y-9439048D02*
X15375000Y-9469048D01*
X15415000Y-9880000D02*
X15445000Y-9910000D01*
X15445000Y-9880000D02*
X15415000Y-9910000D01*
X15435000Y-9030000D02*
X15465000Y-9060000D01*
X15465000Y-9030000D02*
X15435000Y-9060000D01*
X15470000Y-8395000D02*
X15500000Y-8425000D01*
X15500000Y-8395000D02*
X15470000Y-8425000D01*
X15475000Y-8705000D02*
X15505000Y-8735000D01*
X15505000Y-8705000D02*
X15475000Y-8735000D01*
X15535000Y-10195000D02*
X15565000Y-10225000D01*
X15565000Y-10195000D02*
X15535000Y-10225000D01*
X15535000Y-10415000D02*
X15565000Y-10445000D01*
X15565000Y-10415000D02*
X15535000Y-10445000D01*
X15615000Y-10085000D02*
X15645000Y-10115000D01*
X15645000Y-10085000D02*
X15615000Y-10115000D01*
X15690000Y-9085000D02*
X15720000Y-9115000D01*
X15720000Y-9085000D02*
X15690000Y-9115000D01*
X15690000Y-9200000D02*
X15720000Y-9230000D01*
X15720000Y-9200000D02*
X15690000Y-9230000D01*
X15696050Y-10008473D02*
X15726050Y-10038473D01*
X15726050Y-10008473D02*
X15696050Y-10038473D01*
X15705000Y-10125000D02*
X15735000Y-10155000D01*
X15735000Y-10125000D02*
X15705000Y-10155000D01*
X15725000Y-9755000D02*
X15755000Y-9785000D01*
X15755000Y-9755000D02*
X15725000Y-9785000D01*
X15725000Y-10555000D02*
X15755000Y-10585000D01*
X15755000Y-10555000D02*
X15725000Y-10585000D01*
X15730000Y-9380000D02*
X15760000Y-9410000D01*
X15760000Y-9380000D02*
X15730000Y-9410000D01*
X15746050Y-9606000D02*
X15776050Y-9636000D01*
X15776050Y-9606000D02*
X15746050Y-9636000D01*
X15770000Y-9925000D02*
X15800000Y-9955000D01*
X15800000Y-9925000D02*
X15770000Y-9955000D01*
X15815000Y-8600000D02*
X15845000Y-8630000D01*
X15845000Y-8600000D02*
X15815000Y-8630000D01*
X15825000Y-10175000D02*
X15855000Y-10205000D01*
X15855000Y-10175000D02*
X15825000Y-10205000D01*
X15900000Y-9890000D02*
X15930000Y-9920000D01*
X15930000Y-9890000D02*
X15900000Y-9920000D01*
D13*
X14850000Y-8390000D02*
G75*
G03*
X14850000Y-8390000I-20000J0D01*
G01*
X15500000Y-8945000D02*
G75*
G03*
X15500000Y-8945000I-20000J0D01*
G01*
X15562000Y-9052450D02*
G75*
G03*
X15562000Y-9052450I-20000J0D01*
G01*
X15670000Y-8390000D02*
G75*
G03*
X15670000Y-8390000I-20000J0D01*
G01*
D14*
X14678000Y-7750000D02*
X14678000Y-7810000D01*
X14648000Y-7780000D02*
X14708000Y-7780000D01*
D11*
X14708000Y-7830000D02*
X14708000Y-7730000D01*
X14648000Y-7830000D02*
X14648000Y-7730000D01*
X14708000Y-7730000D02*
G75*
G03*
X14648000Y-7730000I-30000J0D01*
G01*
X14648000Y-7830000D02*
G75*
G03*
X14708000Y-7830000I30000J0D01*
G01*
D14*
X14678000Y-8150000D02*
X14678000Y-8210000D01*
X14648000Y-8180000D02*
X14708000Y-8180000D01*
D11*
X14708000Y-8210000D02*
X14708000Y-8150000D01*
X14648000Y-8210000D02*
X14648000Y-8150000D01*
X14708000Y-8150000D02*
G75*
G03*
X14648000Y-8150000I-30000J0D01*
G01*
X14648000Y-8210000D02*
G75*
G03*
X14708000Y-8210000I30000J0D01*
G01*
D14*
X14755000Y-10366500D02*
X14755000Y-10426500D01*
X14725000Y-10396500D02*
X14785000Y-10396500D01*
X14755000Y-10493500D02*
X14755000Y-10553500D01*
X14725000Y-10523500D02*
X14785000Y-10523500D01*
X15802000Y-7750000D02*
X15802000Y-7810000D01*
X15772000Y-7780000D02*
X15832000Y-7780000D01*
D11*
X15832000Y-7830000D02*
X15832000Y-7730000D01*
X15772000Y-7830000D02*
X15772000Y-7730000D01*
X15832000Y-7730000D02*
G75*
G03*
X15772000Y-7730000I-30000J0D01*
G01*
X15772000Y-7830000D02*
G75*
G03*
X15832000Y-7830000I30000J0D01*
G01*
D14*
X15802000Y-8150000D02*
X15802000Y-8210000D01*
X15772000Y-8180000D02*
X15832000Y-8180000D01*
D11*
X15832000Y-8210000D02*
X15832000Y-8150000D01*
X15772000Y-8210000D02*
X15772000Y-8150000D01*
X15832000Y-8150000D02*
G75*
G03*
X15772000Y-8150000I-30000J0D01*
G01*
X15772000Y-8210000D02*
G75*
G03*
X15832000Y-8210000I30000J0D01*
G01*
D10*
X14513356Y-8036356D02*
X14513356Y-7965644D01*
X14442644Y-7965644D01*
X14442644Y-8036356D01*
X14513356Y-8036356D01*
X14513356Y-8290356D02*
X14513356Y-8219644D01*
X14442644Y-8219644D01*
X14442644Y-8290356D01*
X14513356Y-8290356D01*
X14513356Y-8544356D02*
X14513356Y-8473644D01*
X14442644Y-8473644D01*
X14442644Y-8544356D01*
X14513356Y-8544356D01*
X14513356Y-8798356D02*
X14513356Y-8727644D01*
X14442644Y-8727644D01*
X14442644Y-8798356D01*
X14513356Y-8798356D01*
X14513356Y-9052356D02*
X14513356Y-8981644D01*
X14442644Y-8981644D01*
X14442644Y-9052356D01*
X14513356Y-9052356D01*
X14513356Y-9306356D02*
X14513356Y-9235644D01*
X14442644Y-9235644D01*
X14442644Y-9306356D01*
X14513356Y-9306356D01*
X14513356Y-9560356D02*
X14513356Y-9489644D01*
X14442644Y-9489644D01*
X14442644Y-9560356D01*
X14513356Y-9560356D01*
X14513356Y-9814356D02*
X14513356Y-9743644D01*
X14442644Y-9743644D01*
X14442644Y-9814356D01*
X14513356Y-9814356D01*
X14513356Y-10068356D02*
X14513356Y-9997644D01*
X14442644Y-9997644D01*
X14442644Y-10068356D01*
X14513356Y-10068356D01*
X14513356Y-10322356D02*
X14513356Y-10251644D01*
X14442644Y-10251644D01*
X14442644Y-10322356D01*
X14513356Y-10322356D01*
X14513356Y-10576356D02*
X14513356Y-10505644D01*
X14442644Y-10505644D01*
X14442644Y-10576356D01*
X14513356Y-10576356D01*
X14513356Y-10830356D02*
X14513356Y-10759644D01*
X14442644Y-10759644D01*
X14442644Y-10830356D01*
X14513356Y-10830356D01*
X14767356Y-10830356D02*
X14767356Y-10759644D01*
X14696644Y-10759644D01*
X14696644Y-10830356D01*
X14767356Y-10830356D01*
X15021356Y-10830356D02*
X15021356Y-10759644D01*
X14950644Y-10759644D01*
X14950644Y-10830356D01*
X15021356Y-10830356D01*
X15275356Y-10830356D02*
X15275356Y-10759644D01*
X15204644Y-10759644D01*
X15204644Y-10830356D01*
X15275356Y-10830356D01*
X15529356Y-10830356D02*
X15529356Y-10759644D01*
X15458644Y-10759644D01*
X15458644Y-10830356D01*
X15529356Y-10830356D01*
X15783356Y-10830356D02*
X15783356Y-10759644D01*
X15712644Y-10759644D01*
X15712644Y-10830356D01*
X15783356Y-10830356D01*
X16037356Y-8036356D02*
X16037356Y-7965644D01*
X15966644Y-7965644D01*
X15966644Y-8036356D01*
X16037356Y-8036356D01*
X16037356Y-8290356D02*
X16037356Y-8219644D01*
X15966644Y-8219644D01*
X15966644Y-8290356D01*
X16037356Y-8290356D01*
X16037356Y-8544356D02*
X16037356Y-8473644D01*
X15966644Y-8473644D01*
X15966644Y-8544356D01*
X16037356Y-8544356D01*
X16037356Y-8798356D02*
X16037356Y-8727644D01*
X15966644Y-8727644D01*
X15966644Y-8798356D01*
X16037356Y-8798356D01*
X16037356Y-9052356D02*
X16037356Y-8981644D01*
X15966644Y-8981644D01*
X15966644Y-9052356D01*
X16037356Y-9052356D01*
X16037356Y-9306356D02*
X16037356Y-9235644D01*
X15966644Y-9235644D01*
X15966644Y-9306356D01*
X16037356Y-9306356D01*
X16037356Y-9560356D02*
X16037356Y-9489644D01*
X15966644Y-9489644D01*
X15966644Y-9560356D01*
X16037356Y-9560356D01*
X16037356Y-9814356D02*
X16037356Y-9743644D01*
X15966644Y-9743644D01*
X15966644Y-9814356D01*
X16037356Y-9814356D01*
X16037356Y-10068356D02*
X16037356Y-9997644D01*
X15966644Y-9997644D01*
X15966644Y-10068356D01*
X16037356Y-10068356D01*
X16037356Y-10322356D02*
X16037356Y-10251644D01*
X15966644Y-10251644D01*
X15966644Y-10322356D01*
X16037356Y-10322356D01*
X16037356Y-10576356D02*
X16037356Y-10505644D01*
X15966644Y-10505644D01*
X15966644Y-10576356D01*
X16037356Y-10576356D01*
X16037356Y-10830356D02*
X16037356Y-10759644D01*
X15966644Y-10759644D01*
X15966644Y-10830356D01*
X16037356Y-10830356D01*
D11*
X14603619Y-11237476D02*
X14603619Y-11037476D01*
X14651238Y-11037476D01*
X14679809Y-11047000D01*
X14698857Y-11066048D01*
X14708381Y-11085095D01*
X14717905Y-11123190D01*
X14717905Y-11151762D01*
X14708381Y-11189857D01*
X14698857Y-11208905D01*
X14679809Y-11227952D01*
X14651238Y-11237476D01*
X14603619Y-11237476D01*
X14803619Y-11237476D02*
X14803619Y-11104143D01*
X14803619Y-11142238D02*
X14813143Y-11123190D01*
X14822667Y-11113667D01*
X14841714Y-11104143D01*
X14860762Y-11104143D01*
X14927428Y-11237476D02*
X14927428Y-11104143D01*
X14927428Y-11037476D02*
X14917905Y-11047000D01*
X14927428Y-11056524D01*
X14936952Y-11047000D01*
X14927428Y-11037476D01*
X14927428Y-11056524D01*
X15051238Y-11237476D02*
X15032190Y-11227952D01*
X15022667Y-11208905D01*
X15022667Y-11037476D01*
X15156000Y-11237476D02*
X15136952Y-11227952D01*
X15127428Y-11208905D01*
X15127428Y-11037476D01*
X15384571Y-11237476D02*
X15384571Y-11037476D01*
X15451238Y-11180333D01*
X15517905Y-11037476D01*
X15517905Y-11237476D01*
X15698857Y-11237476D02*
X15698857Y-11132714D01*
X15689333Y-11113667D01*
X15670286Y-11104143D01*
X15632190Y-11104143D01*
X15613143Y-11113667D01*
X15698857Y-11227952D02*
X15679809Y-11237476D01*
X15632190Y-11237476D01*
X15613143Y-11227952D01*
X15603619Y-11208905D01*
X15603619Y-11189857D01*
X15613143Y-11170810D01*
X15632190Y-11161286D01*
X15679809Y-11161286D01*
X15698857Y-11151762D01*
X15794095Y-11104143D02*
X15794095Y-11304143D01*
X15794095Y-11113667D02*
X15813143Y-11104143D01*
X15851238Y-11104143D01*
X15870286Y-11113667D01*
X15879809Y-11123190D01*
X15889333Y-11142238D01*
X15889333Y-11199381D01*
X15879809Y-11218428D01*
X15870286Y-11227952D01*
X15851238Y-11237476D01*
X15813143Y-11237476D01*
X15794095Y-11227952D01*
X15975048Y-11218428D02*
X15984571Y-11227952D01*
X15975048Y-11237476D01*
X15965524Y-11227952D01*
X15975048Y-11218428D01*
X15975048Y-11237476D01*
X15975048Y-11113667D02*
X15984571Y-11123190D01*
X15975048Y-11132714D01*
X15965524Y-11123190D01*
X15975048Y-11113667D01*
X15975048Y-11132714D01*
D12*
X14316000Y-11552000D02*
X14346000Y-11582000D01*
X14346000Y-11552000D02*
X14316000Y-11582000D01*
D11*
X14641714Y-11457476D02*
X14660762Y-11457476D01*
X14679809Y-11467000D01*
X14689333Y-11476524D01*
X14698857Y-11495571D01*
X14708381Y-11533667D01*
X14708381Y-11581286D01*
X14698857Y-11619381D01*
X14689333Y-11638428D01*
X14679809Y-11647952D01*
X14660762Y-11657476D01*
X14641714Y-11657476D01*
X14622667Y-11647952D01*
X14613143Y-11638428D01*
X14603619Y-11619381D01*
X14594095Y-11581286D01*
X14594095Y-11533667D01*
X14603619Y-11495571D01*
X14613143Y-11476524D01*
X14622667Y-11467000D01*
X14641714Y-11457476D01*
X14794095Y-11638428D02*
X14803619Y-11647952D01*
X14794095Y-11657476D01*
X14784571Y-11647952D01*
X14794095Y-11638428D01*
X14794095Y-11657476D01*
X14870286Y-11457476D02*
X14994095Y-11457476D01*
X14927428Y-11533667D01*
X14956000Y-11533667D01*
X14975048Y-11543190D01*
X14984571Y-11552714D01*
X14994095Y-11571762D01*
X14994095Y-11619381D01*
X14984571Y-11638428D01*
X14975048Y-11647952D01*
X14956000Y-11657476D01*
X14898857Y-11657476D01*
X14879809Y-11647952D01*
X14870286Y-11638428D01*
X15117905Y-11457476D02*
X15136952Y-11457476D01*
X15156000Y-11467000D01*
X15165524Y-11476524D01*
X15175048Y-11495571D01*
X15184571Y-11533667D01*
X15184571Y-11581286D01*
X15175048Y-11619381D01*
X15165524Y-11638428D01*
X15156000Y-11647952D01*
X15136952Y-11657476D01*
X15117905Y-11657476D01*
X15098857Y-11647952D01*
X15089333Y-11638428D01*
X15079809Y-11619381D01*
X15070286Y-11581286D01*
X15070286Y-11533667D01*
X15079809Y-11495571D01*
X15089333Y-11476524D01*
X15098857Y-11467000D01*
X15117905Y-11457476D01*
X15308381Y-11457476D02*
X15327428Y-11457476D01*
X15346476Y-11467000D01*
X15356000Y-11476524D01*
X15365524Y-11495571D01*
X15375048Y-11533667D01*
X15375048Y-11581286D01*
X15365524Y-11619381D01*
X15356000Y-11638428D01*
X15346476Y-11647952D01*
X15327428Y-11657476D01*
X15308381Y-11657476D01*
X15289333Y-11647952D01*
X15279809Y-11638428D01*
X15270286Y-11619381D01*
X15260762Y-11581286D01*
X15260762Y-11533667D01*
X15270286Y-11495571D01*
X15279809Y-11476524D01*
X15289333Y-11467000D01*
X15308381Y-11457476D01*
X15460762Y-11657476D02*
X15460762Y-11524143D01*
X15460762Y-11543190D02*
X15470286Y-11533667D01*
X15489333Y-11524143D01*
X15517905Y-11524143D01*
X15536952Y-11533667D01*
X15546476Y-11552714D01*
X15546476Y-11657476D01*
X15546476Y-11552714D02*
X15556000Y-11533667D01*
X15575048Y-11524143D01*
X15603619Y-11524143D01*
X15622667Y-11533667D01*
X15632190Y-11552714D01*
X15632190Y-11657476D01*
X15727428Y-11657476D02*
X15727428Y-11524143D01*
X15727428Y-11543190D02*
X15736952Y-11533667D01*
X15756000Y-11524143D01*
X15784571Y-11524143D01*
X15803619Y-11533667D01*
X15813143Y-11552714D01*
X15813143Y-11657476D01*
X15813143Y-11552714D02*
X15822667Y-11533667D01*
X15841714Y-11524143D01*
X15870286Y-11524143D01*
X15889333Y-11533667D01*
X15898857Y-11552714D01*
X15898857Y-11657476D01*
X16289333Y-11447952D02*
X16117905Y-11705095D01*
X16546476Y-11457476D02*
X16565524Y-11457476D01*
X16584571Y-11467000D01*
X16594095Y-11476524D01*
X16603619Y-11495571D01*
X16613143Y-11533667D01*
X16613143Y-11581286D01*
X16603619Y-11619381D01*
X16594095Y-11638428D01*
X16584571Y-11647952D01*
X16565524Y-11657476D01*
X16546476Y-11657476D01*
X16527428Y-11647952D01*
X16517905Y-11638428D01*
X16508381Y-11619381D01*
X16498857Y-11581286D01*
X16498857Y-11533667D01*
X16508381Y-11495571D01*
X16517905Y-11476524D01*
X16527428Y-11467000D01*
X16546476Y-11457476D01*
X16698857Y-11638428D02*
X16708381Y-11647952D01*
X16698857Y-11657476D01*
X16689333Y-11647952D01*
X16698857Y-11638428D01*
X16698857Y-11657476D01*
X16832190Y-11457476D02*
X16851238Y-11457476D01*
X16870286Y-11467000D01*
X16879810Y-11476524D01*
X16889333Y-11495571D01*
X16898857Y-11533667D01*
X16898857Y-11581286D01*
X16889333Y-11619381D01*
X16879810Y-11638428D01*
X16870286Y-11647952D01*
X16851238Y-11657476D01*
X16832190Y-11657476D01*
X16813143Y-11647952D01*
X16803619Y-11638428D01*
X16794095Y-11619381D01*
X16784571Y-11581286D01*
X16784571Y-11533667D01*
X16794095Y-11495571D01*
X16803619Y-11476524D01*
X16813143Y-11467000D01*
X16832190Y-11457476D01*
X17089333Y-11657476D02*
X16975048Y-11657476D01*
X17032190Y-11657476D02*
X17032190Y-11457476D01*
X17013143Y-11486048D01*
X16994095Y-11505095D01*
X16975048Y-11514619D01*
X17279810Y-11657476D02*
X17165524Y-11657476D01*
X17222667Y-11657476D02*
X17222667Y-11457476D01*
X17203619Y-11486048D01*
X17184571Y-11505095D01*
X17165524Y-11514619D01*
X17394095Y-11543190D02*
X17375048Y-11533667D01*
X17365524Y-11524143D01*
X17356000Y-11505095D01*
X17356000Y-11495571D01*
X17365524Y-11476524D01*
X17375048Y-11467000D01*
X17394095Y-11457476D01*
X17432190Y-11457476D01*
X17451238Y-11467000D01*
X17460762Y-11476524D01*
X17470286Y-11495571D01*
X17470286Y-11505095D01*
X17460762Y-11524143D01*
X17451238Y-11533667D01*
X17432190Y-11543190D01*
X17394095Y-11543190D01*
X17375048Y-11552714D01*
X17365524Y-11562238D01*
X17356000Y-11581286D01*
X17356000Y-11619381D01*
X17365524Y-11638428D01*
X17375048Y-11647952D01*
X17394095Y-11657476D01*
X17432190Y-11657476D01*
X17451238Y-11647952D01*
X17460762Y-11638428D01*
X17470286Y-11619381D01*
X17470286Y-11581286D01*
X17460762Y-11562238D01*
X17451238Y-11552714D01*
X17432190Y-11543190D01*
X17546476Y-11457476D02*
X17546476Y-11495571D01*
X17622667Y-11457476D02*
X17622667Y-11495571D01*
X17917905Y-11733667D02*
X17908381Y-11724143D01*
X17889333Y-11695571D01*
X17879810Y-11676524D01*
X17870286Y-11647952D01*
X17860762Y-11600333D01*
X17860762Y-11562238D01*
X17870286Y-11514619D01*
X17879810Y-11486048D01*
X17889333Y-11467000D01*
X17908381Y-11438428D01*
X17917905Y-11428905D01*
X18089333Y-11457476D02*
X17994095Y-11457476D01*
X17984571Y-11552714D01*
X17994095Y-11543190D01*
X18013143Y-11533667D01*
X18060762Y-11533667D01*
X18079810Y-11543190D01*
X18089333Y-11552714D01*
X18098857Y-11571762D01*
X18098857Y-11619381D01*
X18089333Y-11638428D01*
X18079810Y-11647952D01*
X18060762Y-11657476D01*
X18013143Y-11657476D01*
X17994095Y-11647952D01*
X17984571Y-11638428D01*
X18279810Y-11457476D02*
X18184571Y-11457476D01*
X18175048Y-11552714D01*
X18184571Y-11543190D01*
X18203619Y-11533667D01*
X18251238Y-11533667D01*
X18270286Y-11543190D01*
X18279810Y-11552714D01*
X18289333Y-11571762D01*
X18289333Y-11619381D01*
X18279810Y-11638428D01*
X18270286Y-11647952D01*
X18251238Y-11657476D01*
X18203619Y-11657476D01*
X18184571Y-11647952D01*
X18175048Y-11638428D01*
X18527429Y-11657476D02*
X18527429Y-11457476D01*
X18613143Y-11657476D02*
X18613143Y-11552714D01*
X18603619Y-11533667D01*
X18584571Y-11524143D01*
X18556000Y-11524143D01*
X18536952Y-11533667D01*
X18527429Y-11543190D01*
X18736952Y-11657476D02*
X18717905Y-11647952D01*
X18708381Y-11638428D01*
X18698857Y-11619381D01*
X18698857Y-11562238D01*
X18708381Y-11543190D01*
X18717905Y-11533667D01*
X18736952Y-11524143D01*
X18765524Y-11524143D01*
X18784571Y-11533667D01*
X18794095Y-11543190D01*
X18803619Y-11562238D01*
X18803619Y-11619381D01*
X18794095Y-11638428D01*
X18784571Y-11647952D01*
X18765524Y-11657476D01*
X18736952Y-11657476D01*
X18917905Y-11657476D02*
X18898857Y-11647952D01*
X18889333Y-11628905D01*
X18889333Y-11457476D01*
X19070286Y-11647952D02*
X19051238Y-11657476D01*
X19013143Y-11657476D01*
X18994095Y-11647952D01*
X18984571Y-11628905D01*
X18984571Y-11552714D01*
X18994095Y-11533667D01*
X19013143Y-11524143D01*
X19051238Y-11524143D01*
X19070286Y-11533667D01*
X19079810Y-11552714D01*
X19079810Y-11571762D01*
X18984571Y-11590809D01*
X19156000Y-11647952D02*
X19175048Y-11657476D01*
X19213143Y-11657476D01*
X19232190Y-11647952D01*
X19241714Y-11628905D01*
X19241714Y-11619381D01*
X19232190Y-11600333D01*
X19213143Y-11590809D01*
X19184571Y-11590809D01*
X19165524Y-11581286D01*
X19156000Y-11562238D01*
X19156000Y-11552714D01*
X19165524Y-11533667D01*
X19184571Y-11524143D01*
X19213143Y-11524143D01*
X19232190Y-11533667D01*
X19308381Y-11733667D02*
X19317905Y-11724143D01*
X19336952Y-11695571D01*
X19346476Y-11676524D01*
X19356000Y-11647952D01*
X19365524Y-11600333D01*
X19365524Y-11562238D01*
X19356000Y-11514619D01*
X19346476Y-11486048D01*
X19336952Y-11467000D01*
X19317905Y-11438428D01*
X19308381Y-11428905D01*
D13*
X14346000Y-11831000D02*
G75*
G03*
X14346000Y-11831000I-20000J0D01*
G01*
D11*
X14641714Y-11721476D02*
X14660762Y-11721476D01*
X14679809Y-11731000D01*
X14689333Y-11740524D01*
X14698857Y-11759571D01*
X14708381Y-11797667D01*
X14708381Y-11845286D01*
X14698857Y-11883381D01*
X14689333Y-11902428D01*
X14679809Y-11911952D01*
X14660762Y-11921476D01*
X14641714Y-11921476D01*
X14622667Y-11911952D01*
X14613143Y-11902428D01*
X14603619Y-11883381D01*
X14594095Y-11845286D01*
X14594095Y-11797667D01*
X14603619Y-11759571D01*
X14613143Y-11740524D01*
X14622667Y-11731000D01*
X14641714Y-11721476D01*
X14794095Y-11902428D02*
X14803619Y-11911952D01*
X14794095Y-11921476D01*
X14784571Y-11911952D01*
X14794095Y-11902428D01*
X14794095Y-11921476D01*
X14975048Y-11788143D02*
X14975048Y-11921476D01*
X14927428Y-11711952D02*
X14879809Y-11854809D01*
X15003619Y-11854809D01*
X15117905Y-11721476D02*
X15136952Y-11721476D01*
X15156000Y-11731000D01*
X15165524Y-11740524D01*
X15175048Y-11759571D01*
X15184571Y-11797667D01*
X15184571Y-11845286D01*
X15175048Y-11883381D01*
X15165524Y-11902428D01*
X15156000Y-11911952D01*
X15136952Y-11921476D01*
X15117905Y-11921476D01*
X15098857Y-11911952D01*
X15089333Y-11902428D01*
X15079809Y-11883381D01*
X15070286Y-11845286D01*
X15070286Y-11797667D01*
X15079809Y-11759571D01*
X15089333Y-11740524D01*
X15098857Y-11731000D01*
X15117905Y-11721476D01*
X15308381Y-11721476D02*
X15327428Y-11721476D01*
X15346476Y-11731000D01*
X15356000Y-11740524D01*
X15365524Y-11759571D01*
X15375048Y-11797667D01*
X15375048Y-11845286D01*
X15365524Y-11883381D01*
X15356000Y-11902428D01*
X15346476Y-11911952D01*
X15327428Y-11921476D01*
X15308381Y-11921476D01*
X15289333Y-11911952D01*
X15279809Y-11902428D01*
X15270286Y-11883381D01*
X15260762Y-11845286D01*
X15260762Y-11797667D01*
X15270286Y-11759571D01*
X15279809Y-11740524D01*
X15289333Y-11731000D01*
X15308381Y-11721476D01*
X15460762Y-11921476D02*
X15460762Y-11788143D01*
X15460762Y-11807190D02*
X15470286Y-11797667D01*
X15489333Y-11788143D01*
X15517905Y-11788143D01*
X15536952Y-11797667D01*
X15546476Y-11816714D01*
X15546476Y-11921476D01*
X15546476Y-11816714D02*
X15556000Y-11797667D01*
X15575048Y-11788143D01*
X15603619Y-11788143D01*
X15622667Y-11797667D01*
X15632190Y-11816714D01*
X15632190Y-11921476D01*
X15727428Y-11921476D02*
X15727428Y-11788143D01*
X15727428Y-11807190D02*
X15736952Y-11797667D01*
X15756000Y-11788143D01*
X15784571Y-11788143D01*
X15803619Y-11797667D01*
X15813143Y-11816714D01*
X15813143Y-11921476D01*
X15813143Y-11816714D02*
X15822667Y-11797667D01*
X15841714Y-11788143D01*
X15870286Y-11788143D01*
X15889333Y-11797667D01*
X15898857Y-11816714D01*
X15898857Y-11921476D01*
X16289333Y-11711952D02*
X16117905Y-11969095D01*
X16546476Y-11721476D02*
X16565524Y-11721476D01*
X16584571Y-11731000D01*
X16594095Y-11740524D01*
X16603619Y-11759571D01*
X16613143Y-11797667D01*
X16613143Y-11845286D01*
X16603619Y-11883381D01*
X16594095Y-11902428D01*
X16584571Y-11911952D01*
X16565524Y-11921476D01*
X16546476Y-11921476D01*
X16527428Y-11911952D01*
X16517905Y-11902428D01*
X16508381Y-11883381D01*
X16498857Y-11845286D01*
X16498857Y-11797667D01*
X16508381Y-11759571D01*
X16517905Y-11740524D01*
X16527428Y-11731000D01*
X16546476Y-11721476D01*
X16698857Y-11902428D02*
X16708381Y-11911952D01*
X16698857Y-11921476D01*
X16689333Y-11911952D01*
X16698857Y-11902428D01*
X16698857Y-11921476D01*
X16832190Y-11721476D02*
X16851238Y-11721476D01*
X16870286Y-11731000D01*
X16879810Y-11740524D01*
X16889333Y-11759571D01*
X16898857Y-11797667D01*
X16898857Y-11845286D01*
X16889333Y-11883381D01*
X16879810Y-11902428D01*
X16870286Y-11911952D01*
X16851238Y-11921476D01*
X16832190Y-11921476D01*
X16813143Y-11911952D01*
X16803619Y-11902428D01*
X16794095Y-11883381D01*
X16784571Y-11845286D01*
X16784571Y-11797667D01*
X16794095Y-11759571D01*
X16803619Y-11740524D01*
X16813143Y-11731000D01*
X16832190Y-11721476D01*
X17089333Y-11921476D02*
X16975048Y-11921476D01*
X17032190Y-11921476D02*
X17032190Y-11721476D01*
X17013143Y-11750048D01*
X16994095Y-11769095D01*
X16975048Y-11778619D01*
X17270286Y-11721476D02*
X17175048Y-11721476D01*
X17165524Y-11816714D01*
X17175048Y-11807190D01*
X17194095Y-11797667D01*
X17241714Y-11797667D01*
X17260762Y-11807190D01*
X17270286Y-11816714D01*
X17279810Y-11835762D01*
X17279810Y-11883381D01*
X17270286Y-11902428D01*
X17260762Y-11911952D01*
X17241714Y-11921476D01*
X17194095Y-11921476D01*
X17175048Y-11911952D01*
X17165524Y-11902428D01*
X17346476Y-11721476D02*
X17479810Y-11721476D01*
X17394095Y-11921476D01*
X17546476Y-11721476D02*
X17546476Y-11759571D01*
X17622667Y-11721476D02*
X17622667Y-11759571D01*
X17917905Y-11997667D02*
X17908381Y-11988143D01*
X17889333Y-11959571D01*
X17879810Y-11940524D01*
X17870286Y-11911952D01*
X17860762Y-11864333D01*
X17860762Y-11826238D01*
X17870286Y-11778619D01*
X17879810Y-11750048D01*
X17889333Y-11731000D01*
X17908381Y-11702428D01*
X17917905Y-11692905D01*
X18079810Y-11788143D02*
X18079810Y-11921476D01*
X18032190Y-11711952D02*
X17984571Y-11854809D01*
X18108381Y-11854809D01*
X18336952Y-11921476D02*
X18336952Y-11721476D01*
X18422667Y-11921476D02*
X18422667Y-11816714D01*
X18413143Y-11797667D01*
X18394095Y-11788143D01*
X18365524Y-11788143D01*
X18346476Y-11797667D01*
X18336952Y-11807190D01*
X18546476Y-11921476D02*
X18527429Y-11911952D01*
X18517905Y-11902428D01*
X18508381Y-11883381D01*
X18508381Y-11826238D01*
X18517905Y-11807190D01*
X18527429Y-11797667D01*
X18546476Y-11788143D01*
X18575048Y-11788143D01*
X18594095Y-11797667D01*
X18603619Y-11807190D01*
X18613143Y-11826238D01*
X18613143Y-11883381D01*
X18603619Y-11902428D01*
X18594095Y-11911952D01*
X18575048Y-11921476D01*
X18546476Y-11921476D01*
X18727429Y-11921476D02*
X18708381Y-11911952D01*
X18698857Y-11892905D01*
X18698857Y-11721476D01*
X18879810Y-11911952D02*
X18860762Y-11921476D01*
X18822667Y-11921476D01*
X18803619Y-11911952D01*
X18794095Y-11892905D01*
X18794095Y-11816714D01*
X18803619Y-11797667D01*
X18822667Y-11788143D01*
X18860762Y-11788143D01*
X18879810Y-11797667D01*
X18889333Y-11816714D01*
X18889333Y-11835762D01*
X18794095Y-11854809D01*
X18965524Y-11911952D02*
X18984571Y-11921476D01*
X19022667Y-11921476D01*
X19041714Y-11911952D01*
X19051238Y-11892905D01*
X19051238Y-11883381D01*
X19041714Y-11864333D01*
X19022667Y-11854809D01*
X18994095Y-11854809D01*
X18975048Y-11845286D01*
X18965524Y-11826238D01*
X18965524Y-11816714D01*
X18975048Y-11797667D01*
X18994095Y-11788143D01*
X19022667Y-11788143D01*
X19041714Y-11797667D01*
X19117905Y-11997667D02*
X19127429Y-11988143D01*
X19146476Y-11959571D01*
X19156000Y-11940524D01*
X19165524Y-11911952D01*
X19175048Y-11864333D01*
X19175048Y-11826238D01*
X19165524Y-11778619D01*
X19156000Y-11750048D01*
X19146476Y-11731000D01*
X19127429Y-11702428D01*
X19117905Y-11692905D01*
D14*
X14316000Y-12065000D02*
X14316000Y-12125000D01*
X14286000Y-12095000D02*
X14346000Y-12095000D01*
D11*
X14641714Y-11985476D02*
X14660762Y-11985476D01*
X14679809Y-11995000D01*
X14689333Y-12004524D01*
X14698857Y-12023571D01*
X14708381Y-12061667D01*
X14708381Y-12109286D01*
X14698857Y-12147381D01*
X14689333Y-12166428D01*
X14679809Y-12175952D01*
X14660762Y-12185476D01*
X14641714Y-12185476D01*
X14622667Y-12175952D01*
X14613143Y-12166428D01*
X14603619Y-12147381D01*
X14594095Y-12109286D01*
X14594095Y-12061667D01*
X14603619Y-12023571D01*
X14613143Y-12004524D01*
X14622667Y-11995000D01*
X14641714Y-11985476D01*
X14794095Y-12166428D02*
X14803619Y-12175952D01*
X14794095Y-12185476D01*
X14784571Y-12175952D01*
X14794095Y-12166428D01*
X14794095Y-12185476D01*
X14975048Y-11985476D02*
X14936952Y-11985476D01*
X14917905Y-11995000D01*
X14908381Y-12004524D01*
X14889333Y-12033095D01*
X14879809Y-12071190D01*
X14879809Y-12147381D01*
X14889333Y-12166428D01*
X14898857Y-12175952D01*
X14917905Y-12185476D01*
X14956000Y-12185476D01*
X14975048Y-12175952D01*
X14984571Y-12166428D01*
X14994095Y-12147381D01*
X14994095Y-12099762D01*
X14984571Y-12080714D01*
X14975048Y-12071190D01*
X14956000Y-12061667D01*
X14917905Y-12061667D01*
X14898857Y-12071190D01*
X14889333Y-12080714D01*
X14879809Y-12099762D01*
X15117905Y-11985476D02*
X15136952Y-11985476D01*
X15156000Y-11995000D01*
X15165524Y-12004524D01*
X15175048Y-12023571D01*
X15184571Y-12061667D01*
X15184571Y-12109286D01*
X15175048Y-12147381D01*
X15165524Y-12166428D01*
X15156000Y-12175952D01*
X15136952Y-12185476D01*
X15117905Y-12185476D01*
X15098857Y-12175952D01*
X15089333Y-12166428D01*
X15079809Y-12147381D01*
X15070286Y-12109286D01*
X15070286Y-12061667D01*
X15079809Y-12023571D01*
X15089333Y-12004524D01*
X15098857Y-11995000D01*
X15117905Y-11985476D01*
X15308381Y-11985476D02*
X15327428Y-11985476D01*
X15346476Y-11995000D01*
X15356000Y-12004524D01*
X15365524Y-12023571D01*
X15375048Y-12061667D01*
X15375048Y-12109286D01*
X15365524Y-12147381D01*
X15356000Y-12166428D01*
X15346476Y-12175952D01*
X15327428Y-12185476D01*
X15308381Y-12185476D01*
X15289333Y-12175952D01*
X15279809Y-12166428D01*
X15270286Y-12147381D01*
X15260762Y-12109286D01*
X15260762Y-12061667D01*
X15270286Y-12023571D01*
X15279809Y-12004524D01*
X15289333Y-11995000D01*
X15308381Y-11985476D01*
X15460762Y-12185476D02*
X15460762Y-12052143D01*
X15460762Y-12071190D02*
X15470286Y-12061667D01*
X15489333Y-12052143D01*
X15517905Y-12052143D01*
X15536952Y-12061667D01*
X15546476Y-12080714D01*
X15546476Y-12185476D01*
X15546476Y-12080714D02*
X15556000Y-12061667D01*
X15575048Y-12052143D01*
X15603619Y-12052143D01*
X15622667Y-12061667D01*
X15632190Y-12080714D01*
X15632190Y-12185476D01*
X15727428Y-12185476D02*
X15727428Y-12052143D01*
X15727428Y-12071190D02*
X15736952Y-12061667D01*
X15756000Y-12052143D01*
X15784571Y-12052143D01*
X15803619Y-12061667D01*
X15813143Y-12080714D01*
X15813143Y-12185476D01*
X15813143Y-12080714D02*
X15822667Y-12061667D01*
X15841714Y-12052143D01*
X15870286Y-12052143D01*
X15889333Y-12061667D01*
X15898857Y-12080714D01*
X15898857Y-12185476D01*
X16289333Y-11975952D02*
X16117905Y-12233095D01*
X16546476Y-11985476D02*
X16565524Y-11985476D01*
X16584571Y-11995000D01*
X16594095Y-12004524D01*
X16603619Y-12023571D01*
X16613143Y-12061667D01*
X16613143Y-12109286D01*
X16603619Y-12147381D01*
X16594095Y-12166428D01*
X16584571Y-12175952D01*
X16565524Y-12185476D01*
X16546476Y-12185476D01*
X16527428Y-12175952D01*
X16517905Y-12166428D01*
X16508381Y-12147381D01*
X16498857Y-12109286D01*
X16498857Y-12061667D01*
X16508381Y-12023571D01*
X16517905Y-12004524D01*
X16527428Y-11995000D01*
X16546476Y-11985476D01*
X16698857Y-12166428D02*
X16708381Y-12175952D01*
X16698857Y-12185476D01*
X16689333Y-12175952D01*
X16698857Y-12166428D01*
X16698857Y-12185476D01*
X16832190Y-11985476D02*
X16851238Y-11985476D01*
X16870286Y-11995000D01*
X16879810Y-12004524D01*
X16889333Y-12023571D01*
X16898857Y-12061667D01*
X16898857Y-12109286D01*
X16889333Y-12147381D01*
X16879810Y-12166428D01*
X16870286Y-12175952D01*
X16851238Y-12185476D01*
X16832190Y-12185476D01*
X16813143Y-12175952D01*
X16803619Y-12166428D01*
X16794095Y-12147381D01*
X16784571Y-12109286D01*
X16784571Y-12061667D01*
X16794095Y-12023571D01*
X16803619Y-12004524D01*
X16813143Y-11995000D01*
X16832190Y-11985476D01*
X16975048Y-12004524D02*
X16984571Y-11995000D01*
X17003619Y-11985476D01*
X17051238Y-11985476D01*
X17070286Y-11995000D01*
X17079810Y-12004524D01*
X17089333Y-12023571D01*
X17089333Y-12042619D01*
X17079810Y-12071190D01*
X16965524Y-12185476D01*
X17089333Y-12185476D01*
X17156000Y-11985476D02*
X17279810Y-11985476D01*
X17213143Y-12061667D01*
X17241714Y-12061667D01*
X17260762Y-12071190D01*
X17270286Y-12080714D01*
X17279810Y-12099762D01*
X17279810Y-12147381D01*
X17270286Y-12166428D01*
X17260762Y-12175952D01*
X17241714Y-12185476D01*
X17184571Y-12185476D01*
X17165524Y-12175952D01*
X17156000Y-12166428D01*
X17451238Y-11985476D02*
X17413143Y-11985476D01*
X17394095Y-11995000D01*
X17384571Y-12004524D01*
X17365524Y-12033095D01*
X17356000Y-12071190D01*
X17356000Y-12147381D01*
X17365524Y-12166428D01*
X17375048Y-12175952D01*
X17394095Y-12185476D01*
X17432190Y-12185476D01*
X17451238Y-12175952D01*
X17460762Y-12166428D01*
X17470286Y-12147381D01*
X17470286Y-12099762D01*
X17460762Y-12080714D01*
X17451238Y-12071190D01*
X17432190Y-12061667D01*
X17394095Y-12061667D01*
X17375048Y-12071190D01*
X17365524Y-12080714D01*
X17356000Y-12099762D01*
X17546476Y-11985476D02*
X17546476Y-12023571D01*
X17622667Y-11985476D02*
X17622667Y-12023571D01*
X17917905Y-12261667D02*
X17908381Y-12252143D01*
X17889333Y-12223571D01*
X17879810Y-12204524D01*
X17870286Y-12175952D01*
X17860762Y-12128333D01*
X17860762Y-12090238D01*
X17870286Y-12042619D01*
X17879810Y-12014048D01*
X17889333Y-11995000D01*
X17908381Y-11966428D01*
X17917905Y-11956905D01*
X17984571Y-12004524D02*
X17994095Y-11995000D01*
X18013143Y-11985476D01*
X18060762Y-11985476D01*
X18079810Y-11995000D01*
X18089333Y-12004524D01*
X18098857Y-12023571D01*
X18098857Y-12042619D01*
X18089333Y-12071190D01*
X17975048Y-12185476D01*
X18098857Y-12185476D01*
X18336952Y-12185476D02*
X18336952Y-11985476D01*
X18422667Y-12185476D02*
X18422667Y-12080714D01*
X18413143Y-12061667D01*
X18394095Y-12052143D01*
X18365524Y-12052143D01*
X18346476Y-12061667D01*
X18336952Y-12071190D01*
X18546476Y-12185476D02*
X18527429Y-12175952D01*
X18517905Y-12166428D01*
X18508381Y-12147381D01*
X18508381Y-12090238D01*
X18517905Y-12071190D01*
X18527429Y-12061667D01*
X18546476Y-12052143D01*
X18575048Y-12052143D01*
X18594095Y-12061667D01*
X18603619Y-12071190D01*
X18613143Y-12090238D01*
X18613143Y-12147381D01*
X18603619Y-12166428D01*
X18594095Y-12175952D01*
X18575048Y-12185476D01*
X18546476Y-12185476D01*
X18727429Y-12185476D02*
X18708381Y-12175952D01*
X18698857Y-12156905D01*
X18698857Y-11985476D01*
X18879810Y-12175952D02*
X18860762Y-12185476D01*
X18822667Y-12185476D01*
X18803619Y-12175952D01*
X18794095Y-12156905D01*
X18794095Y-12080714D01*
X18803619Y-12061667D01*
X18822667Y-12052143D01*
X18860762Y-12052143D01*
X18879810Y-12061667D01*
X18889333Y-12080714D01*
X18889333Y-12099762D01*
X18794095Y-12118809D01*
X18965524Y-12175952D02*
X18984571Y-12185476D01*
X19022667Y-12185476D01*
X19041714Y-12175952D01*
X19051238Y-12156905D01*
X19051238Y-12147381D01*
X19041714Y-12128333D01*
X19022667Y-12118809D01*
X18994095Y-12118809D01*
X18975048Y-12109286D01*
X18965524Y-12090238D01*
X18965524Y-12080714D01*
X18975048Y-12061667D01*
X18994095Y-12052143D01*
X19022667Y-12052143D01*
X19041714Y-12061667D01*
X19289333Y-12109286D02*
X19441714Y-12109286D01*
X19365524Y-12185476D02*
X19365524Y-12033095D01*
X19775048Y-12052143D02*
X19775048Y-12185476D01*
X19727429Y-11975952D02*
X19679810Y-12118809D01*
X19803619Y-12118809D01*
X20022667Y-12175952D02*
X20041714Y-12185476D01*
X20079810Y-12185476D01*
X20098857Y-12175952D01*
X20108381Y-12156905D01*
X20108381Y-12147381D01*
X20098857Y-12128333D01*
X20079810Y-12118809D01*
X20051238Y-12118809D01*
X20032190Y-12109286D01*
X20022667Y-12090238D01*
X20022667Y-12080714D01*
X20032190Y-12061667D01*
X20051238Y-12052143D01*
X20079810Y-12052143D01*
X20098857Y-12061667D01*
X20222667Y-12185476D02*
X20203619Y-12175952D01*
X20194095Y-12156905D01*
X20194095Y-11985476D01*
X20327429Y-12185476D02*
X20308381Y-12175952D01*
X20298857Y-12166428D01*
X20289333Y-12147381D01*
X20289333Y-12090238D01*
X20298857Y-12071190D01*
X20308381Y-12061667D01*
X20327429Y-12052143D01*
X20356000Y-12052143D01*
X20375048Y-12061667D01*
X20384571Y-12071190D01*
X20394095Y-12090238D01*
X20394095Y-12147381D01*
X20384571Y-12166428D01*
X20375048Y-12175952D01*
X20356000Y-12185476D01*
X20327429Y-12185476D01*
X20451238Y-12052143D02*
X20527429Y-12052143D01*
X20479810Y-11985476D02*
X20479810Y-12156905D01*
X20489333Y-12175952D01*
X20508381Y-12185476D01*
X20527429Y-12185476D01*
X20584571Y-12175952D02*
X20603619Y-12185476D01*
X20641714Y-12185476D01*
X20660762Y-12175952D01*
X20670286Y-12156905D01*
X20670286Y-12147381D01*
X20660762Y-12128333D01*
X20641714Y-12118809D01*
X20613143Y-12118809D01*
X20594095Y-12109286D01*
X20584571Y-12090238D01*
X20584571Y-12080714D01*
X20594095Y-12061667D01*
X20613143Y-12052143D01*
X20641714Y-12052143D01*
X20660762Y-12061667D01*
X20736952Y-12261667D02*
X20746476Y-12252143D01*
X20765524Y-12223571D01*
X20775048Y-12204524D01*
X20784571Y-12175952D01*
X20794095Y-12128333D01*
X20794095Y-12090238D01*
X20784571Y-12042619D01*
X20775048Y-12014048D01*
X20765524Y-11995000D01*
X20746476Y-11966428D01*
X20736952Y-11956905D01*
D10*
X14331356Y-12394356D02*
X14331356Y-12323644D01*
X14260644Y-12323644D01*
X14260644Y-12394356D01*
X14331356Y-12394356D01*
D11*
X14708381Y-12449476D02*
X14594095Y-12449476D01*
X14651238Y-12449476D02*
X14651238Y-12249476D01*
X14632190Y-12278048D01*
X14613143Y-12297095D01*
X14594095Y-12306619D01*
X14794095Y-12430428D02*
X14803619Y-12439952D01*
X14794095Y-12449476D01*
X14784571Y-12439952D01*
X14794095Y-12430428D01*
X14794095Y-12449476D01*
X14927428Y-12249476D02*
X14946476Y-12249476D01*
X14965524Y-12259000D01*
X14975048Y-12268524D01*
X14984571Y-12287571D01*
X14994095Y-12325667D01*
X14994095Y-12373286D01*
X14984571Y-12411381D01*
X14975048Y-12430428D01*
X14965524Y-12439952D01*
X14946476Y-12449476D01*
X14927428Y-12449476D01*
X14908381Y-12439952D01*
X14898857Y-12430428D01*
X14889333Y-12411381D01*
X14879809Y-12373286D01*
X14879809Y-12325667D01*
X14889333Y-12287571D01*
X14898857Y-12268524D01*
X14908381Y-12259000D01*
X14927428Y-12249476D01*
X15117905Y-12249476D02*
X15136952Y-12249476D01*
X15156000Y-12259000D01*
X15165524Y-12268524D01*
X15175048Y-12287571D01*
X15184571Y-12325667D01*
X15184571Y-12373286D01*
X15175048Y-12411381D01*
X15165524Y-12430428D01*
X15156000Y-12439952D01*
X15136952Y-12449476D01*
X15117905Y-12449476D01*
X15098857Y-12439952D01*
X15089333Y-12430428D01*
X15079809Y-12411381D01*
X15070286Y-12373286D01*
X15070286Y-12325667D01*
X15079809Y-12287571D01*
X15089333Y-12268524D01*
X15098857Y-12259000D01*
X15117905Y-12249476D01*
X15308381Y-12249476D02*
X15327428Y-12249476D01*
X15346476Y-12259000D01*
X15356000Y-12268524D01*
X15365524Y-12287571D01*
X15375048Y-12325667D01*
X15375048Y-12373286D01*
X15365524Y-12411381D01*
X15356000Y-12430428D01*
X15346476Y-12439952D01*
X15327428Y-12449476D01*
X15308381Y-12449476D01*
X15289333Y-12439952D01*
X15279809Y-12430428D01*
X15270286Y-12411381D01*
X15260762Y-12373286D01*
X15260762Y-12325667D01*
X15270286Y-12287571D01*
X15279809Y-12268524D01*
X15289333Y-12259000D01*
X15308381Y-12249476D01*
X15460762Y-12449476D02*
X15460762Y-12316143D01*
X15460762Y-12335190D02*
X15470286Y-12325667D01*
X15489333Y-12316143D01*
X15517905Y-12316143D01*
X15536952Y-12325667D01*
X15546476Y-12344714D01*
X15546476Y-12449476D01*
X15546476Y-12344714D02*
X15556000Y-12325667D01*
X15575048Y-12316143D01*
X15603619Y-12316143D01*
X15622667Y-12325667D01*
X15632190Y-12344714D01*
X15632190Y-12449476D01*
X15727428Y-12449476D02*
X15727428Y-12316143D01*
X15727428Y-12335190D02*
X15736952Y-12325667D01*
X15756000Y-12316143D01*
X15784571Y-12316143D01*
X15803619Y-12325667D01*
X15813143Y-12344714D01*
X15813143Y-12449476D01*
X15813143Y-12344714D02*
X15822667Y-12325667D01*
X15841714Y-12316143D01*
X15870286Y-12316143D01*
X15889333Y-12325667D01*
X15898857Y-12344714D01*
X15898857Y-12449476D01*
X16289333Y-12239952D02*
X16117905Y-12497095D01*
X16546476Y-12249476D02*
X16565524Y-12249476D01*
X16584571Y-12259000D01*
X16594095Y-12268524D01*
X16603619Y-12287571D01*
X16613143Y-12325667D01*
X16613143Y-12373286D01*
X16603619Y-12411381D01*
X16594095Y-12430428D01*
X16584571Y-12439952D01*
X16565524Y-12449476D01*
X16546476Y-12449476D01*
X16527428Y-12439952D01*
X16517905Y-12430428D01*
X16508381Y-12411381D01*
X16498857Y-12373286D01*
X16498857Y-12325667D01*
X16508381Y-12287571D01*
X16517905Y-12268524D01*
X16527428Y-12259000D01*
X16546476Y-12249476D01*
X16698857Y-12430428D02*
X16708381Y-12439952D01*
X16698857Y-12449476D01*
X16689333Y-12439952D01*
X16698857Y-12430428D01*
X16698857Y-12449476D01*
X16832190Y-12249476D02*
X16851238Y-12249476D01*
X16870286Y-12259000D01*
X16879810Y-12268524D01*
X16889333Y-12287571D01*
X16898857Y-12325667D01*
X16898857Y-12373286D01*
X16889333Y-12411381D01*
X16879810Y-12430428D01*
X16870286Y-12439952D01*
X16851238Y-12449476D01*
X16832190Y-12449476D01*
X16813143Y-12439952D01*
X16803619Y-12430428D01*
X16794095Y-12411381D01*
X16784571Y-12373286D01*
X16784571Y-12325667D01*
X16794095Y-12287571D01*
X16803619Y-12268524D01*
X16813143Y-12259000D01*
X16832190Y-12249476D01*
X16965524Y-12249476D02*
X17089333Y-12249476D01*
X17022667Y-12325667D01*
X17051238Y-12325667D01*
X17070286Y-12335190D01*
X17079810Y-12344714D01*
X17089333Y-12363762D01*
X17089333Y-12411381D01*
X17079810Y-12430428D01*
X17070286Y-12439952D01*
X17051238Y-12449476D01*
X16994095Y-12449476D01*
X16975048Y-12439952D01*
X16965524Y-12430428D01*
X17184571Y-12449476D02*
X17222667Y-12449476D01*
X17241714Y-12439952D01*
X17251238Y-12430428D01*
X17270286Y-12401857D01*
X17279810Y-12363762D01*
X17279810Y-12287571D01*
X17270286Y-12268524D01*
X17260762Y-12259000D01*
X17241714Y-12249476D01*
X17203619Y-12249476D01*
X17184571Y-12259000D01*
X17175048Y-12268524D01*
X17165524Y-12287571D01*
X17165524Y-12335190D01*
X17175048Y-12354238D01*
X17184571Y-12363762D01*
X17203619Y-12373286D01*
X17241714Y-12373286D01*
X17260762Y-12363762D01*
X17270286Y-12354238D01*
X17279810Y-12335190D01*
X17451238Y-12316143D02*
X17451238Y-12449476D01*
X17403619Y-12239952D02*
X17356000Y-12382809D01*
X17479810Y-12382809D01*
X17546476Y-12249476D02*
X17546476Y-12287571D01*
X17622667Y-12249476D02*
X17622667Y-12287571D01*
X17917905Y-12525667D02*
X17908381Y-12516143D01*
X17889333Y-12487571D01*
X17879810Y-12468524D01*
X17870286Y-12439952D01*
X17860762Y-12392333D01*
X17860762Y-12354238D01*
X17870286Y-12306619D01*
X17879810Y-12278048D01*
X17889333Y-12259000D01*
X17908381Y-12230428D01*
X17917905Y-12220905D01*
X17984571Y-12268524D02*
X17994095Y-12259000D01*
X18013143Y-12249476D01*
X18060762Y-12249476D01*
X18079810Y-12259000D01*
X18089333Y-12268524D01*
X18098857Y-12287571D01*
X18098857Y-12306619D01*
X18089333Y-12335190D01*
X17975048Y-12449476D01*
X18098857Y-12449476D01*
X18194095Y-12449476D02*
X18232190Y-12449476D01*
X18251238Y-12439952D01*
X18260762Y-12430428D01*
X18279810Y-12401857D01*
X18289333Y-12363762D01*
X18289333Y-12287571D01*
X18279810Y-12268524D01*
X18270286Y-12259000D01*
X18251238Y-12249476D01*
X18213143Y-12249476D01*
X18194095Y-12259000D01*
X18184571Y-12268524D01*
X18175048Y-12287571D01*
X18175048Y-12335190D01*
X18184571Y-12354238D01*
X18194095Y-12363762D01*
X18213143Y-12373286D01*
X18251238Y-12373286D01*
X18270286Y-12363762D01*
X18279810Y-12354238D01*
X18289333Y-12335190D01*
X18527429Y-12449476D02*
X18527429Y-12249476D01*
X18613143Y-12449476D02*
X18613143Y-12344714D01*
X18603619Y-12325667D01*
X18584571Y-12316143D01*
X18556000Y-12316143D01*
X18536952Y-12325667D01*
X18527429Y-12335190D01*
X18736952Y-12449476D02*
X18717905Y-12439952D01*
X18708381Y-12430428D01*
X18698857Y-12411381D01*
X18698857Y-12354238D01*
X18708381Y-12335190D01*
X18717905Y-12325667D01*
X18736952Y-12316143D01*
X18765524Y-12316143D01*
X18784571Y-12325667D01*
X18794095Y-12335190D01*
X18803619Y-12354238D01*
X18803619Y-12411381D01*
X18794095Y-12430428D01*
X18784571Y-12439952D01*
X18765524Y-12449476D01*
X18736952Y-12449476D01*
X18917905Y-12449476D02*
X18898857Y-12439952D01*
X18889333Y-12420905D01*
X18889333Y-12249476D01*
X19070286Y-12439952D02*
X19051238Y-12449476D01*
X19013143Y-12449476D01*
X18994095Y-12439952D01*
X18984571Y-12420905D01*
X18984571Y-12344714D01*
X18994095Y-12325667D01*
X19013143Y-12316143D01*
X19051238Y-12316143D01*
X19070286Y-12325667D01*
X19079810Y-12344714D01*
X19079810Y-12363762D01*
X18984571Y-12382809D01*
X19156000Y-12439952D02*
X19175048Y-12449476D01*
X19213143Y-12449476D01*
X19232190Y-12439952D01*
X19241714Y-12420905D01*
X19241714Y-12411381D01*
X19232190Y-12392333D01*
X19213143Y-12382809D01*
X19184571Y-12382809D01*
X19165524Y-12373286D01*
X19156000Y-12354238D01*
X19156000Y-12344714D01*
X19165524Y-12325667D01*
X19184571Y-12316143D01*
X19213143Y-12316143D01*
X19232190Y-12325667D01*
X19308381Y-12525667D02*
X19317905Y-12516143D01*
X19336952Y-12487571D01*
X19346476Y-12468524D01*
X19356000Y-12439952D01*
X19365524Y-12392333D01*
X19365524Y-12354238D01*
X19356000Y-12306619D01*
X19346476Y-12278048D01*
X19336952Y-12259000D01*
X19317905Y-12230428D01*
X19308381Y-12220905D01*
M02*
